<?xml version="1.0" encoding="utf-8"?>
<!-- Generator: Adobe Illustrator 23.0.6, SVG Export Plug-In . SVG Version: 6.00 Build 0)  -->
<svg version="1.1" id="Layer_1" xmlns="http://www.w3.org/2000/svg" xmlns:xlink="http://www.w3.org/1999/xlink" x="0px" y="0px"
	 viewBox="0 0 425.2 283.5" style="enable-background:new 0 0 425.2 283.5;" xml:space="preserve">
<style type="text/css">
	.st0{fill-rule:evenodd;clip-rule:evenodd;}
	.st1{fill-rule:evenodd;clip-rule:evenodd;fill:#0099FF;}
	.st2{fill-rule:evenodd;clip-rule:evenodd;fill:#00FFFF;}
	.st3{fill:#0099FF;}
	.st4{fill:#00FFFF;}
</style>
<g>
	<g>
		<polygon points="75.3,220.4 75.3,218.1 71,219.3 71.1,221.6 68.9,222.2 69,224.5 71.1,223.9 71.1,223.9 71,223.9 71,226.2 
			71.2,226.2 71.3,235.4 73.4,234.8 73.4,237.1 77.7,235.9 77.4,219.8 		"/>
		<path d="M71.9,239.1l0-2.3l-2,0.6l-0.2-9.2l-0.1,0l0-2.3l-2,0.6l-0.1-5.4l2.1-0.6l-0.1-2.3l7.3-2.1l0,2.3l2-0.6l0.4,19.2
			L71.9,239.1z M74.8,232.8l0,2.3l1.3-0.4l-0.3-13l-2,0.6l0-2.3l-1.3,0.4l0,1.5l0,0v2.3l0,0l0.2,9.2L74.8,232.8z"/>
	</g>
	<g>
		<path d="M94.2,221.9l-0.1-4.6l-2,0.6l0-2.3l-2.1,0.6l-0.1-2.3l-8.5,2.5l0.1,2.3l-2.1,0.6l0,2.3l4.2-1.2l0,0l-2.1,0.6l0,2.3l0.1,0
			l0,2.3l-2.1,0.6l0.1,6.9l2-0.6l0,2.3l12.8-3.7l-0.1-4.6l-2,0.6l0-2.3l-0.1,0l-0.1-2.3L94.2,221.9z M83.6,224.9L83.6,224.9l6.3-1.8
			l0,0L83.6,224.9z M85.7,226.6l2.2-0.6l0,2.3l-2.2,0.6L85.7,226.6z M87.8,221.4l-2.2,0.6l0-2.3l2.2-0.6L87.8,221.4z M87.8,216.8
			L87.8,216.8l-4.3,1.2l0,0L87.8,216.8z M85.8,231.2L85.8,231.2l4.3-1.2l0,0L85.8,231.2z"/>
		<path d="M80.1,236.7l0-2.3l-2,0.6l-0.2-10l2-0.6l0-1.5l-2,0.6l-0.1-5.4l2.1-0.6l-0.1-2.3l11.5-3.3l0.1,2.3l2.1-0.6l0,2.3l2-0.6
			l0.1,7.7l-2,0.6l0,1.5l2-0.6l0.2,7.7L80.1,236.7z M83,230.5l0,2.3l1.3-0.4v-1.5l0,0l-0.1-4.6l-2.1,0.6v0l-1.2,0.4l0.1,3.8
			L83,230.5z M91.6,228.8v1.5l1.3-0.4l0-1.5L91.6,228.8z M89.4,224.8l0.1,3.8l1.3-0.4l0-1.5l-0.1,0l-0.1-2.3L89.4,224.8z
			 M82.9,222.1l0,1.5l1.2-0.3l0-1.5L82.9,222.1z M89.3,217.9l0.1,3.8l2.1-0.6v0l1.2-0.4l0-1.5l-2,0.6l0-2.3L89.3,217.9z M82.8,217.4
			l0,1.5l0.8-0.2l-0.4-1.4L82.8,217.4z M87.8,216.9l0.2,0.6l0.5-0.1l0-1.5l-0.8,0.2L87.8,216.9z"/>
	</g>
	<g>
		<polygon points="98.2,229.9 100.4,229.3 100.3,227 98.2,227.6 		"/>
		<polygon points="96.8,231.9 96.7,226.5 101.8,225 101.9,230.4 		"/>
	</g>
	<g>
		<polygon points="104.1,221.3 114.8,218.2 114.8,215.9 104.1,219 		"/>
		<polygon points="102.7,223.3 102.6,217.9 116.2,213.9 116.3,219.3 		"/>
	</g>
	<g>
		<polygon points="122.9,206.6 122.8,204.3 118.6,205.6 118.6,207.9 116.5,208.5 116.5,210.8 118.7,210.2 118.7,210.2 118.6,210.2 
			118.6,212.5 118.7,212.5 118.9,221.7 120.9,221.1 121,223.4 125.2,222.2 124.9,206.1 		"/>
		<path d="M119.5,225.4l0-2.3l-2,0.6l-0.2-9.2l-0.1,0l0-2.3l-2,0.6l-0.1-5.4l2.1-0.6l-0.1-2.3l7.3-2.1l0,2.3l2-0.6l0.4,19.2
			L119.5,225.4z M122.4,219.1l0,2.3l1.3-0.4l-0.3-13l-2,0.6l0-2.3l-1.3,0.4l0,1.5l0,0v2.3l0,0l0.2,9.2L122.4,219.1z"/>
	</g>
	<g>
		<path d="M141.7,208.1l-0.1-4.6l-2,0.6l0-2.3l-2.1,0.6l-0.1-2.3l-8.5,2.5l0.1,2.3l-2.1,0.6l0,2.3l4.2-1.2l0,0l-2.1,0.6l0,2.3
			l2.2-0.6l0,2.3l4.3-1.2l0,0l-2.2,0.6l0,2.3l2.2-0.6l0,2.3l-4.3,1.2l0-2.3l-4.3,1.2l0.1,2.3l2.1-0.6l0,0l-0.1,0l0.1,2.3l2.1-0.6
			l0,2.3l8.5-2.5l0-2.3l2.1-0.6l-0.1-4.6l-2,0.6l0-2.3L141.7,208.1z M135.3,203L135.3,203l-4.3,1.2l0,0L135.3,203z M133.2,208.3
			l0-2.3l2.2-0.6l0,2.3L133.2,208.3z M133.3,217.5L133.3,217.5l4.3-1.2l0,0L133.3,217.5z"/>
		<path d="M129.8,222.4l0-2.3l-2.1,0.6l-0.1-2.3l-2,0.6l-0.1-5.4l4.3-1.2l0-1.5l-2.2,0.6l0-2.3l-2,0.6l-0.1-5.4l2.1-0.6l-0.1-2.3
			l11.5-3.3l0.1,2.3l2.1-0.6l0,2.3l2-0.6l0.1,6.9l0,0l0.2,7.7l-2.1,0.6l0,2.3L129.8,222.4z M137.2,214.8l0.6,2.1l0.5-0.1l0-2.3
			l2.1-0.6l0-1.5l-2,0.6l-0.1-5.4l2-0.6l0-1.5l-2,0.6l0-2.3l-1.3,0.4l0.1,3.8l0,0v2.3l0,0l0.1,4.6L137.2,214.8z M130.4,203.7l0,1.5
			l0.8-0.2l-0.4-1.4L130.4,203.7z M135.3,203.1l0.2,0.6l0.5-0.1l0-1.5l-0.8,0.2L135.3,203.1z"/>
	</g>
	<g>
		<polygon points="145.8,216.2 147.9,215.6 147.9,213.3 145.8,213.9 		"/>
		<polygon points="144.3,218.2 144.2,212.8 149.4,211.3 149.5,216.7 		"/>
	</g>
	<g>
		<polygon points="166.2,194.1 166.1,191.8 161.9,193.1 161.9,195.4 159.8,196 159.8,198.3 161.9,197.7 161.9,197.7 161.8,197.7 
			161.9,200 162,200 162.2,209.2 164.2,208.6 164.2,210.9 168.5,209.7 168.2,193.6 		"/>
		<path d="M162.8,212.9l0-2.3l-2,0.6l-0.2-9.2l-0.1,0l0-2.3l-2,0.6l-0.1-5.4l2.1-0.6l-0.1-2.3l7.3-2.1l0,2.3l2-0.6l0.4,19.2
			L162.8,212.9z M165.7,206.6l0,2.3l1.3-0.4l-0.3-13l-2,0.6l0-2.3l-1.3,0.4l0,1.5l0,0v2.3l0,0l0.2,9.2L165.7,206.6z"/>
	</g>
	<g>
		<polygon points="172.4,208.5 174.5,207.9 174.5,205.6 172.4,206.2 		"/>
		<polygon points="170.9,210.5 170.8,205.1 176,203.6 176,209 		"/>
	</g>
	<g>
		<path d="M191,193.9l-0.1-4.6l-2,0.6l0-2.3l-2.1,0.6l-0.1-2.3l-8.5,2.5l0.1,2.3l-2.1,0.6l0,2.3l4.2-1.2l0,0l-2.1,0.6l0,2.3l0.1,0
			l0.1,2.3l-2.1,0.6l0.1,6.9l2-0.6l0,2.3l12.8-3.7l-0.1-4.6l-2,0.6l0-2.3l-0.1,0l-0.1-2.3L191,193.9z M180.5,197L180.5,197l6.3-1.8
			l0,0L180.5,197z M182.6,198.7l2.2-0.6l0.1,2.3l-2.2,0.6L182.6,198.7z M184.7,193.4l-2.2,0.6l0-2.3l2.2-0.6L184.7,193.4z
			 M184.6,188.8L184.6,188.8l-4.3,1.2l0,0L184.6,188.8z M182.6,203.3L182.6,203.3l4.3-1.2l0,0L182.6,203.3z"/>
		<path d="M177,208.8l0-2.3l-2,0.6l-0.2-10l2-0.6l0-1.5l-2,0.6l-0.1-5.4l2.1-0.6l-0.1-2.3l11.5-3.3l0.1,2.3l2.1-0.6l0,2.3l2-0.6
			l0.1,7.7l-2,0.6l0,1.5l2-0.6l0.1,7.7L177,208.8z M179.8,202.5l0,2.3l1.3-0.4v-1.5l0,0l-0.1-4.6l-1.9,0.5l0,0l-1.4,0.4l0.1,3.8
			L179.8,202.5z M186.5,200.6l0.6,2.1l2.6-0.7l0-1.5l-2,0.6l0-2.3l-0.1,0l-0.1-2.3l-1.2,0.3l0.1,3.8L186.5,200.6z M179.8,194.1
			l0,1.5l1.2-0.3l0-1.5L179.8,194.1z M186.1,189.9l0.1,3.8l2.1-0.6v0l1.2-0.4l0-1.5l-2,0.6l0-2.3L186.1,189.9z M179.7,189.5l0,1.5
			l0.8-0.2l-0.4-1.4L179.7,189.5z M184.6,188.9l0.2,0.6l0.5-0.1l0-1.5l-0.8,0.2L184.6,188.9z"/>
	</g>
	<g>
		<polygon points="215.9,179.8 215.8,177.5 211.5,178.7 211.6,181 209.5,181.6 209.5,183.9 211.6,183.3 211.6,183.3 211.5,183.4 
			211.6,185.7 211.7,185.6 211.9,194.8 213.9,194.2 213.9,196.5 218.2,195.3 217.9,179.2 		"/>
		<path d="M212.5,198.5l0-2.3l-2,0.6l-0.2-9.2l-0.1,0l0-2.3l-2,0.6l-0.1-5.4l2.1-0.6l-0.1-2.3l7.3-2.1l0,2.3l2-0.6l0.4,19.2
			L212.5,198.5z M215.3,192.3l0,2.3l1.3-0.4l-0.3-13l-2,0.6l0-2.3l-1.3,0.4l0,1.5l0,0v2.3l0,0l0.2,9.2L215.3,192.3z"/>
	</g>
	<g>
		<path d="M232.6,177.3l0-2.3l-2.1,0.6l-0.1-2.3l-8.5,2.5l0.1,2.3l-2.1,0.6l0.1,4.6l2-0.6l0,2.3l2.1-0.6l0.1,2.3l-4.2,1.2l0,2.3
			l2.1-0.6l0,0l-0.1,0l0,2.3l2.1-0.6l0,2.3l8.5-2.5l0-2.3l2.1-0.6l-0.2-11.5L232.6,177.3z M226.2,183.8l2.2-0.6l0,0L226.2,183.8
			L226.2,183.8z M226.1,181.5l0-2.3l2.2-0.6l0,2.3L226.1,181.5z M228.3,176.2L228.3,176.2l-4.3,1.2l0,0L228.3,176.2z M224.2,186.6
			l4.3-1.2l0,2.3l-4.3,1.2L224.2,186.6z M226.3,190.7L226.3,190.7l4.3-1.2l0,0L226.3,190.7z"/>
		<path d="M222.8,195.6l0-2.3l-2.1,0.6l0-2.3l-2,0.6l-0.1-5.4l2-0.6l0-1.5l-2,0.6l-0.1-7.7l2.1-0.6l-0.1-2.3l11.5-3.3l0.1,2.3
			l2.1-0.6l0,2.3l2-0.6l0.3,14.6l-2.1,0.6l0,2.3L222.8,195.6z M230.2,188l0.6,2.1l0.5-0.1l0-2.3l2.1-0.6l-0.2-8.4l-2,0.6l0-2.3
			l-1.3,0.4l0.1,3.8l0,0v2.3l0,0l0.1,4.6L230.2,188z M223.3,180.7l0,2.3l1.3-0.4l-0.1-3.8l-0.1,0l-0.1-0.2l-0.6-1.9l-0.5,0.1
			l0.1,2.3l-2.1,0.6l0,1.5L223.3,180.7z M228.3,176.3l0.2,0.6l0.5-0.1l0-1.5l-0.8,0.2L228.3,176.3z"/>
	</g>
	<g>
		<polygon points="98.3,225.3 96.1,225.9 96.2,228.2 98.3,227.6 		"/>
		<polygon points="94.7,230.2 94.6,224.8 99.7,223.3 99.8,228.7 		"/>
	</g>
	<g>
		<polygon points="112.7,214.2 102,217.3 102.1,219.6 112.7,216.5 		"/>
		<polygon points="100.6,221.6 100.5,216.2 114.1,212.2 114.3,217.6 		"/>
	</g>
	<g>
		<polygon points="145.8,211.6 143.7,212.2 143.7,214.5 145.9,213.9 		"/>
		<polygon points="142.3,216.5 142.2,211.1 147.3,209.6 147.4,215 		"/>
	</g>
	<g>
		<polygon points="155.8,194.8 151.6,196 151.6,198.3 149.5,199 149.5,201.3 151.7,200.6 151.7,200.6 151.6,200.7 151.6,203 
			151.7,202.9 151.9,212.1 153.9,211.6 154,213.9 158.2,212.6 157.9,196.5 155.9,197.1 		"/>
		<path d="M152.5,215.8l0-2.3l-2,0.6l-0.2-9.2l-0.1,0l0-2.3l-2,0.6l-0.1-5.4l2.1-0.6l-0.1-2.3l7.3-2.1l0,2.3l2-0.6l0.4,19.2
			L152.5,215.8z M155.4,209.6l0,2.3l1.3-0.4l-0.3-13l-2,0.6l0-2.3l-1.3,0.4l0,1.5l0,0v2.3l0,0l0.2,9.2L155.4,209.6z"/>
	</g>
	<g>
		<polygon points="172.4,203.9 170.3,204.5 170.3,206.8 172.5,206.2 		"/>
		<polygon points="168.9,208.8 168.8,203.4 173.9,201.9 174,207.3 		"/>
	</g>
	<g>
		<path d="M205.6,182.8l-2.1,0.6l-0.1-2.3l-8.5,2.5l0.1,2.3l-2.1,0.6L193,198l2-0.6l0,2.3l2.1-0.6l0,2.3l8.5-2.5l0-2.3l2.1-0.6
			l-0.2-11.5l-2,0.6L205.6,182.8z M201.3,184L201.3,184l-4.3,1.2l0,0L201.3,184z M201.4,186.3l0.2,9.2l-2.2,0.6l-0.2-9.2
			L201.4,186.3z M199.3,198.4L199.3,198.4l4.3-1.2l0,0L199.3,198.4z"/>
		<path d="M195.8,203.3l0-2.3l-2.1,0.6l0-2.3l-2,0.6l-0.3-14.6l2.1-0.6l-0.1-2.3l11.5-3.3l0.1,2.3l2.1-0.6l0,2.3l2-0.6l0.3,14.6
			l-2.1,0.6l0,2.3L195.8,203.3z M198.7,197.9l0,1.5l0.8-0.2l-0.4-1.4L198.7,197.9z M196.5,195.4l0,2.3l1.3-0.4l-0.2-10.7l-0.2,0
			l-0.1-0.2l-0.6-1.9l-0.5,0.1l0.1,2.3l-2.1,0.6l0.2,8.4L196.5,195.4z M202.8,185.1l0.2,10.7l2.1-0.6v0l1.2-0.4l-0.2-8.4l-2,0.6
			l0-2.3L202.8,185.1z M201.3,184.1l0.2,0.6l0.5-0.1l0-1.5l-0.8,0.2L201.3,184.1z"/>
	</g>
</g>
<path class="st0" d="M403.9,113.6c0-0.6,0-1.2,0-1.9c-4.4,0-8.7,0-13.1,0c0,0.6,0,1.2,0,1.9c-3.1,0-6.2,0-9.4,0c0,0.6,0,1.2,0,1.9
	c-1.9,0-3.7,0-5.6,0c0,0.6,0,1.2,0,1.9c-2.5,0-5,0-7.5,0c0,0.6,0,1.2,0,1.9c-2.5,0-5,0-7.5,0c0,0.6,0,1.2,0,1.9c-0.6,0-1.2,0-1.9,0
	c0,3.8,0,7.6,0,11.4c0.6,0,1.2,0,1.9,0c0,0.6,0,1.2,0,1.9c0.6,0,1.2,0,1.9,0c0,7.5,0,15.1,0,22.6c-0.6,0-1.2,0-1.9,0
	c0-0.6,0-1.2,0-1.9c-3.1,0-6.2,0-9.4,0c0,0.6,0,1.2,0,1.9c-0.6,0-1.2,0-1.9,0c0,0.6,0,1.2,0,1.9c-1.2,0-2.5,0-3.7,0
	c0,0.6,0,1.2,0,1.9c-0.6,0-1.2,0-1.9,0c0,0.6,0,1.2,0,1.9c-1.2,0-2.5,0-3.7,0c0-1.2,0-2.5,0-3.7c0.6,0,1.2,0,1.9,0
	c0-1.9,0-3.9,0-5.8c0.6,0,1.2,0,1.9,0c0-1.9,0-3.7,0-5.6c0.6,0,1.2,0,1.9,0c0-1.2,0-2.5,0-3.7c0.6,0,1.2,0,1.9,0c0-0.6,0-1.2,0-1.9
	c0.6,0,1.2,0,1.9,0c0,0.6,0,1.2,0,1.9c0.6,0,1.2,0,1.9,0c0,1.2,0,2.5,0,3.7c0.6,0,1.2,0,1.9,0c0,0.6,0,1.2,0,1.9c1.9,0,3.7,0,5.6,0
	c0-0.6,0-1.2,0-1.9c0.6,0,1.2,0,1.9,0c0-3.1,0-6.2,0-9.4c-0.6,0-1.2,0-1.9,0c0-1.2,0-2.5,0-3.7c-0.6,0-1.2,0-1.9,0
	c0-0.6,0-1.2,0-1.9c-0.6,0-1.2,0-1.9,0c0-0.6,0-1.2,0-1.9c-0.6,0-1.2,0-1.9,0c0-0.7,0-1.4,0-2c-5,0-10,0-15,0c0,0.7,0,1.4,0,2
	c-0.6,0-1.2,0-1.9,0c0,0.6,0,1.2,0,1.9c-0.6,0-1.2,0-1.9,0c0,1.2,0,2.5,0,3.7c-0.6,0-1.2,0-1.9,0c0,1.2,0,2.5,0,3.7
	c-0.6,0-1.2,0-1.9,0c0,1.2,0,2.5,0,3.7c-0.6,0-1.2,0-1.9,0c0,0.6,0,1.2,0,1.9c-0.6,0-1.2,0-1.9,0c0-1.2,0-2.5,0-3.7
	c-0.6,0-1.2,0-1.9,0c0-0.6,0-1.2,0-1.9c-1.2,0-2.5,0-3.7,0c0-0.6,0-1.2,0-1.9c-5,0-10.1,0-15.1,0c0,0.6,0,1.2,0,1.9
	c-2.5,0-5,0-7.5,0c0,0.6,0,1.2,0,1.9c-1.9,0-3.7,0-5.6,0c0,0.6,0,1.2,0,1.9c-2.5,0-5,0-7.5,0c0,0.6,0,1.2,0,1.9c-1.2,0-2.5,0-3.7,0
	c0,0.6,0,1.2,0,1.9c-0.6,0-1.2,0-1.9,0c0,0.6,0,1.2,0,1.9c-1.2,0-2.5,0-3.7,0c0,0.6,0,1.2,0,1.9c-0.6,0-1.2,0-1.9,0
	c0,0.6,0,1.2,0,1.9c-0.6,0-1.2,0-1.9,0c0,1.9,0,3.9,0,5.8c0.6,0,1.2,0,1.9,0c0,0.6,0,1.2,0,1.9c0.6,0,1.2,0,1.9,0c0,0.6,0,1.2,0,1.9
	c3.1,0,6.2,0,9.4,0c0-0.6,0-1.2,0-1.9c0.6,0,1.2,0,1.9,0c0,3.1,0,6.2,0,9.4c-0.6,0-1.2,0-1.9,0c0,4.4,0,8.8,0,13.3
	c-0.6,0-1.2,0-1.9,0c0,5.6,0,11.2,0,16.8c-0.6,0-1.2,0-1.9,0c0,0.6,0,1.2,0,1.9c-0.6,0-1.2,0-1.9,0c0,1.9,0,3.9,0,5.8
	c0.6,0,1.2,0,1.9,0c0,0.6,0,1.2,0,1.9c0.6,0,1.2,0,1.9,0c0,0.6,0,1.2,0,1.9c-0.6,0-1.2,0-1.9,0c0,0.6,0,1.2,0,1.9c-2.5,0-5,0-7.5,0
	c0,0.6,0,1.2,0,1.9c-1.9,0-3.7,0-5.6,0c0,0.6,0,1.2,0,1.9c-1.2,0-2.5,0-3.7,0c0-1.9,0-3.7,0-5.6c0.6,0,1.2,0,1.9,0
	c0-6.9,0-13.8,0-20.8c0.6,0,1.2,0,1.9,0c0-0.6,0-1.2,0-1.9c1.9,0,3.7,0,5.6,0c0-0.6,0-1.2,0-1.9c1.2,0,2.5,0,3.7,0
	c0-0.6,0-1.2,0-1.9c1.2,0,2.5,0,3.7,0c0-0.6,0-1.2,0-1.9c0.6,0,1.2,0,1.9,0c0-2.6,0-5.1,0-7.7c-0.6,0-1.2,0-1.9,0c0-0.6,0-1.2,0-1.9
	c-0.6,0-1.2,0-1.9,0c0-0.6,0-1.2,0-1.9c-2.5,0-5,0-7.5,0c0,0.6,0,1.2,0,1.9c-1.9,0-3.7,0-5.6,0c0-1.2,0-2.5,0-3.7c0.6,0,1.2,0,1.9,0
	c0-4.4,0-8.7,0-13.1c0.6,0,1.2,0,1.9,0c0-3.8,0-7.6,0-11.4c3.7,0,7.5,0,11.2,0c0-0.6,0-1.2,0-1.9c1.2,0,2.5,0,3.7,0
	c0-0.6,0-1.2,0-1.9c1.9,0,3.7,0,5.6,0c0-0.6,0-1.2,0-1.9c1.9,0,3.7,0,5.6,0c0-0.6,0-1.2,0-1.9c2.5,0,5,0,7.5,0c0-0.6,0-1.2,0-1.9
	c1.9,0,3.7,0,5.6,0c0-0.6,0-1.2,0-1.9c1.9,0,3.9,0,5.8,0c0-0.6,0-1.2,0-1.9c1.9,0,3.7,0,5.6,0c0-0.6,0-1.2,0-1.9c0.6,0,1.2,0,1.9,0
	c0-0.7,0-1.4,0-2c0.6,0,1.2,0,1.9,0c0-1.9,0-3.7,0-5.6c-0.6,0-1.2,0-1.9,0c0-0.6,0-1.2,0-1.9c-5,0-10.1,0-15.1,0c0,0.6,0,1.2,0,1.9
	c-2.5,0-5,0-7.5,0c0,0.6,0,1.2,0,1.9c-2.5,0-5,0-7.5,0c0,0.6,0,1.2,0,1.9c-2.5,0-5,0-7.5,0c0,0.6,0,1.2,0,1.9c-2.5,0-5,0-7.5,0
	c0,0.7,0,1.4,0,2c-2.5,0-5,0-7.5,0c0,0.6,0,1.2,0,1.9c-2.5,0-5,0-7.5,0c0,0.6,0,1.2,0,1.9c-1.9,0-3.7,0-5.6,0c0,0.6,0,1.2,0,1.9
	c-2.5,0-5,0-7.5,0c0,0.6,0,1.2,0,1.9c-1.9,0-3.7,0-5.6,0c0,0.6,0,1.2,0,1.9c-1.9,0-3.7,0-5.6,0c0-7.5,0-15.1,0-22.6
	c0.6,0,1.2,0,1.9,0c0-1.9,0-3.7,0-5.6c0.6,0,1.2,0,1.9,0c0,1.2,0,2.5,0,3.7c0.6,0,1.2,0,1.9,0c0,1.2,0,2.5,0,3.7c0.6,0,1.2,0,1.9,0
	c0,0.6,0,1.2,0,1.9c0.6,0,1.2,0,1.9,0c0,0.6,0,1.2,0,1.9c0.6,0,1.2,0,1.9,0c0,1.2,0,2.5,0,3.7c0.6,0,1.2,0,1.9,0c0,0.6,0,1.2,0,1.9
	c2.5,0,5,0,7.5,0c0-1.2,0-2.5,0-3.7c0.6,0,1.2,0,1.9,0c0-5.6,0-11.2,0-16.8c0.6,0,1.2,0,1.9,0c0,1.9,0,3.7,0,5.6c0.6,0,1.2,0,1.9,0
	c0,1.2,0,2.5,0,3.7c0.6,0,1.2,0,1.9,0c0,0.6,0,1.2,0,1.9c0.6,0,1.2,0,1.9,0c0,0.6,0,1.2,0,1.9c0.6,0,1.2,0,1.9,0c0,0.6,0,1.2,0,1.9
	c0.6,0,1.2,0,1.9,0c0,0.6,0,1.2,0,1.9c1.2,0,2.5,0,3.7,0c0,0.6,0,1.2,0,1.9c3.1,0,6.2,0,9.4,0c0-0.6,0-1.2,0-1.9c1.2,0,2.5,0,3.7,0
	c0-0.6,0-1.2,0-1.9c1.2,0,2.5,0,3.7,0c0-0.6,0-1.2,0-1.9c0.6,0,1.2,0,1.9,0c0-0.6,0-1.2,0-1.9c0.6,0,1.2,0,1.9,0c0-1.9,0-3.7,0-5.6
	c0.6,0,1.2,0,1.9,0c0-1.2,0-2.5,0-3.7c0.6,0,1.2,0,1.9,0c0-2.6,0-5.1,0-7.7c0.6,0,1.2,0,1.9,0c0-4.4,0-8.7,0-13.1
	c-0.6,0-1.2,0-1.9,0c0-0.6,0-1.2,0-1.9c-2.5,0-5,0-7.5,0c0,0.6,0,1.2,0,1.9c-1.9,0-3.7,0-5.6,0c0,0.6,0,1.2,0,1.9
	c-1.2,0-2.5,0-3.7,0c0,0.6,0,1.2,0,1.9c-1.2,0-2.5,0-3.7,0c0,0.6,0,1.2,0,1.9c-0.6,0-1.2,0-1.9,0c0,0.6,0,1.2,0,1.9
	c-0.6,0-1.2,0-1.9,0c0-2.5,0-5,0-7.5c0.6,0,1.2,0,1.9,0c0-1.9,0-3.7,0-5.6c0.6,0,1.2,0,1.9,0c0-0.6,0-1.2,0-1.9c0.6,0,1.2,0,1.9,0
	c0-1.3,0-2.6,0-3.9c0.6,0,1.2,0,1.9,0c0-1.2,0-2.5,0-3.7c0.6,0,1.2,0,1.9,0c0-0.6,0-1.2,0-1.9c1.2,0,2.5,0,3.7,0c0,3.2,0,6.4,0,9.5
	c0.6,0,1.2,0,1.9,0c0,0.6,0,1.2,0,1.9c2.5,0,5,0,7.5,0c0-1.3,0-2.6,0-3.9c0.6,0,1.2,0,1.9,0c0-5,0-10,0-15c-0.6,0-1.2,0-1.9,0
	c0-1.2,0-2.5,0-3.7c-0.6,0-1.2,0-1.9,0c0-0.6,0-1.2,0-1.9c-1.2,0-2.5,0-3.7,0c0-0.6,0-1.2,0-1.9c-0.6,0-1.2,0-1.9,0c0-0.7,0-1.4,0-2
	c-3.7,0-7.5,0-11.2,0c0,0.7,0,1.4,0,2c-0.6,0-1.2,0-1.9,0c0,0.6,0,1.2,0,1.9c-0.6,0-1.2,0-1.9,0c0,0.6,0,1.2,0,1.9
	c-0.6,0-1.2,0-1.9,0c0,0.6,0,1.2,0,1.9c-0.6,0-1.2,0-1.9,0c0,1.2,0,2.5,0,3.7c-0.6,0-1.2,0-1.9,0c0,0.6,0,1.2,0,1.9
	c-0.6,0-1.2,0-1.9,0c0,1.2,0,2.5,0,3.7c-0.6,0-1.2,0-1.9,0c0,1.9,0,3.7,0,5.6c-0.6,0-1.2,0-1.9,0c0,1.3,0,2.6,0,3.9
	c-0.6,0-1.2,0-1.9,0c0-1.3,0-2.6,0-3.9c0.6,0,1.2,0,1.9,0c0-10.7,0-21.3,0-32c-0.6,0-1.2,0-1.9,0c0-3.7,0-7.5,0-11.2
	c-0.6,0-1.2,0-1.9,0c0-0.6,0-1.2,0-1.9c-2.5,0-5,0-7.5,0c0,2.5,0,5,0,7.5c-0.6,0-1.2,0-1.9,0c0,3.7,0,7.5,0,11.2c-0.6,0-1.2,0-1.9,0
	c0,5,0,10.1,0,15.1c-0.6,0-1.2,0-1.9,0c0,7.5,0,15.1,0,22.6c-0.6,0-1.2,0-1.9,0c0-1.2,0-2.5,0-3.7c-0.6,0-1.2,0-1.9,0
	c0-1.2,0-2.5,0-3.7c-0.6,0-1.2,0-1.9,0c0-1.3,0-2.6,0-3.9c-0.6,0-1.2,0-1.9,0c0-1.2,0-2.5,0-3.7c-0.6,0-1.2,0-1.9,0
	c0-1.2,0-2.5,0-3.7c-0.6,0-1.2,0-1.9,0c0-0.6,0-1.2,0-1.9c-0.6,0-1.2,0-1.9,0c0-0.6,0-1.2,0-1.9c-2.5,0-5,0-7.5,0
	c0,6.3,0,12.6,0,18.9c-0.6,0-1.2,0-1.9,0c0,3.1,0,6.2,0,9.4c-0.6,0-1.2,0-1.9,0c0-0.6,0-1.2,0-1.9c-0.6,0-1.2,0-1.9,0
	c0-0.6,0-1.2,0-1.9c-0.6,0-1.2,0-1.9,0c0-0.6,0-1.2,0-1.9c-1.9,0-3.7,0-5.6,0c0-1.2,0-2.5,0-3.7c0.6,0,1.2,0,1.9,0
	c0-1.9,0-3.9,0-5.8c0.6,0,1.2,0,1.9,0c0-1.2,0-2.5,0-3.7c0.6,0,1.2,0,1.9,0c0-2.5,0-5,0-7.5c-0.6,0-1.2,0-1.9,0c0-0.6,0-1.2,0-1.9
	c-0.6,0-1.2,0-1.9,0c0-0.6,0-1.2,0-1.9c-3.1,0-6.2,0-9.4,0c0,0.6,0,1.2,0,1.9c-2.5,0-5,0-7.5,0c0,0.6,0,1.2,0,1.9
	c-1.9,0-3.7,0-5.6,0c0,0.6,0,1.2,0,1.9c-2.5,0-5,0-7.5,0c0,0.6,0,1.2,0,1.9c-2.5,0-5,0-7.5,0c0,0.6,0,1.2,0,1.9c-2.5,0-5,0-7.5,0
	c0,0.6,0,1.2,0,1.9c-1.9,0-3.7,0-5.6,0c0,0.6,0,1.2,0,1.9c-1.9,0-3.7,0-5.6,0c0,0.6,0,1.2,0,1.9c-0.6,0-1.2,0-1.9,0c0,0.7,0,1.4,0,2
	c-1.2,0-2.5,0-3.7,0c0,0.6,0,1.2,0,1.9c-0.6,0-1.2,0-1.9,0c0,1.9,0,3.7,0,5.6c1.2,0,2.5,0,3.7,0c0,0.6,0,1.2,0,1.9
	c6.2,0,12.5,0,18.7,0c0-0.6,0-1.2,0-1.9c3.1,0,6.2,0,9.4,0c0-0.6,0-1.2,0-1.9c3.1,0,6.2,0,9.4,0c0-0.6,0-1.2,0-1.9
	c0.6,0,1.2,0,1.9,0c0,1.9,0,3.7,0,5.6c-0.6,0-1.2,0-1.9,0c0,1.2,0,2.5,0,3.7c-0.6,0-1.2,0-1.9,0c0,1.9,0,3.7,0,5.6
	c-0.6,0-1.2,0-1.9,0c0,1.2,0,2.5,0,3.7c-0.6,0-1.2,0-1.9,0c0,1.9,0,3.9,0,5.8c-0.6,0-1.2,0-1.9,0c0,1.2,0,2.5,0,3.7
	c-0.6,0-1.2,0-1.9,0c0,1.2,0,2.5,0,3.7c-0.6,0-1.2,0-1.9,0c0,1.9,0,3.7,0,5.6c-0.6,0-1.2,0-1.9,0c0,1.2,0,2.5,0,3.7
	c-0.6,0-1.2,0-1.9,0c0,1.3,0,2.6,0,3.9c-0.6,0-1.2,0-1.9,0c0,1.9,0,3.7,0,5.6c-0.6,0-1.2,0-1.9,0c0,1.2,0,2.5,0,3.7
	c-0.6,0-1.2,0-1.9,0c0-0.6,0-1.2,0-1.9c-5,0-10,0-15,0c0-1.9,0-3.7,0-5.6c1.2,0,2.5,0,3.7,0c0-0.6,0-1.2,0-1.9c1.2,0,2.5,0,3.7,0
	c0-0.7,0-1.4,0-2c1.9,0,3.7,0,5.6,0c0-0.6,0-1.2,0-1.9c0.6,0,1.2,0,1.9,0c0-2.5,0-5,0-7.5c-0.6,0-1.2,0-1.9,0c0-0.6,0-1.2,0-1.9
	c-3.7,0-7.5,0-11.2,0c0-1.9,0-3.7,0-5.6c1.2,0,2.5,0,3.7,0c0-0.6,0-1.2,0-1.9c0.6,0,1.2,0,1.9,0c0-0.6,0-1.2,0-1.9
	c0.6,0,1.2,0,1.9,0c0-0.6,0-1.2,0-1.9c1.9,0,3.7,0,5.6,0c0-0.7,0-1.4,0-2c0.6,0,1.2,0,1.9,0c0-0.6,0-1.2,0-1.9c0.6,0,1.2,0,1.9,0
	c0-2.5,0-5,0-7.5c-0.6,0-1.2,0-1.9,0c0-0.6,0-1.2,0-1.9c-2.5,0-5,0-7.5,0c0,0.6,0,1.2,0,1.9c-3.1,0-6.2,0-9.4,0c0,0.6,0,1.2,0,1.9
	c-2.5,0-5,0-7.5,0c0,0.6,0,1.2,0,1.9c-1.2,0-2.5,0-3.7,0c0,0.6,0,1.2,0,1.9c-0.6,0-1.2,0-1.9,0c0,0.6,0,1.2,0,1.9
	c-0.6,0-1.2,0-1.9,0c0,1.3,0,2.6,0,3.9c-5,0-10,0-15,0c0,0.6,0,1.2,0,1.9c-1.9,0-3.7,0-5.6,0c0,0.6,0,1.2,0,1.9c-3.1,0-6.2,0-9.4,0
	c0,0.6,0,1.2,0,1.9c-0.6,0-1.2,0-1.9,0c0,0.6,0,1.2,0,1.9c-1.3,0-2.6,0-3.9,0c0-0.6,0-1.2,0-1.9c-1.2,0-2.5,0-3.7,0
	c0-0.6,0-1.2,0-1.9c-8.1,0-16.2,0-24.3,0c0,0.6,0,1.2,0,1.9c-1.9,0-3.7,0-5.6,0c0,0.6,0,1.2,0,1.9c-1.2,0-2.5,0-3.7,0
	c0,0.6,0,1.2,0,1.9c-1.9,0-3.7,0-5.6,0c0,0.6,0,1.2,0,1.9c-0.6,0-1.2,0-1.9,0c0,0.6,0,1.2,0,1.9c-0.6,0-1.2,0-1.9,0
	c0,0.6,0,1.2,0,1.9c-0.6,0-1.2,0-1.9,0c0,1.9,0,3.7,0,5.6c1.2,0,2.5,0,3.7,0c0,0.6,0,1.2,0,1.9c3.7,0,7.5,0,11.2,0
	c0,1.3,0,2.6,0,3.9c-5,0-10,0-15,0c0,0.6,0,1.2,0,1.9c-1.2,0-2.5,0-3.7,0c0-3.8,0-7.6,0-11.4c0.6,0,1.2,0,1.9,0c0-3.7,0-7.5,0-11.2
	c0.6,0,1.2,0,1.9,0c0-0.6,0-1.2,0-1.9c1.9,0,3.7,0,5.6,0c0-0.6,0-1.2,0-1.9c2.5,0,5,0,7.5,0c0-0.6,0-1.2,0-1.9c1.9,0,3.7,0,5.6,0
	c0-0.7,0-1.4,0-2c2.5,0,5,0,7.5,0c0-0.6,0-1.2,0-1.9c2.5,0,5,0,7.5,0c0-0.6,0-1.2,0-1.9c2.5,0,5,0,7.5,0c0-0.6,0-1.2,0-1.9
	c1.2,0,2.5,0,3.7,0c0-0.6,0-1.2,0-1.9c0.6,0,1.2,0,1.9,0c0-0.6,0-1.2,0-1.9c0.6,0,1.2,0,1.9,0c0-0.6,0-1.2,0-1.9c0.6,0,1.2,0,1.9,0
	c0-2.5,0-5,0-7.5c-0.6,0-1.2,0-1.9,0c0-0.6,0-1.2,0-1.9c-5.6,0-11.2,0-16.8,0c0,0.6,0,1.2,0,1.9c-1.9,0-3.7,0-5.6,0
	c0,0.6,0,1.2,0,1.9c-2.5,0-5,0-7.5,0c0,0.6,0,1.2,0,1.9c-3.7,0-7.5,0-11.2,0c0,0.6,0,1.2,0,1.9c-1.2,0-2.5,0-3.7,0
	c0,0.6,0,1.2,0,1.9c-1.9,0-3.7,0-5.6,0c0,0.6,0,1.2,0,1.9c-1.9,0-3.7,0-5.6,0c0,0.6,0,1.2,0,1.9c-4.4,0-8.7,0-13.1,0
	c0,0.6,0,1.2,0,1.9c-0.6,0-1.2,0-1.9,0c0,0.6,0,1.2,0,1.9c-2.5,0-5,0-7.5,0c0,0.6,0,1.2,0,1.9c-1.2,0-2.5,0-3.7,0c0,0.6,0,1.2,0,1.9
	c-1.9,0-3.7,0-5.6,0c0,0.7,0,1.4,0,2c-0.6,0-1.2,0-1.9,0c0,0.6,0,1.2,0,1.9c-0.6,0-1.2,0-1.9,0c0,2.5,0,5,0,7.5c0.6,0,1.2,0,1.9,0
	c0,0.6,0,1.2,0,1.9c0.6,0,1.2,0,1.9,0c0,0.6,0,1.2,0,1.9c2.5,0,5,0,7.5,0c0-0.6,0-1.2,0-1.9c2.5,0,5,0,7.5,0c0,2.5,0,5,0,7.5
	c0.6,0,1.2,0,1.9,0c0,0.6,0,1.2,0,1.9c-0.6,0-1.2,0-1.9,0c0,8.2,0,16.3,0,24.5c0.6,0,1.2,0,1.9,0c0,6.9,0,13.8,0,20.8
	c0.6,0,1.2,0,1.9,0c0,10,0,20.1,0,30.1c0.6,0,1.2,0,1.9,0c0,2.6,0,5.1,0,7.7c0.6,0,1.2,0,1.9,0c0,0.6,0,1.2,0,1.9c0.6,0,1.2,0,1.9,0
	c0,0.6,0,1.2,0,1.9c1.9,0,3.7,0,5.6,0c0-0.6,0-1.2,0-1.9c0.6,0,1.2,0,1.9,0c0-3.8,0-7.6,0-11.4c0.6,0,1.2,0,1.9,0
	c0-16.3,0-32.7,0-49c0.6,0,1.2,0,1.9,0c0-0.6,0-1.2,0-1.9c1.9,0,3.7,0,5.6,0c0-0.6,0-1.2,0-1.9c1.9,0,3.7,0,5.6,0c0-0.6,0-1.2,0-1.9
	c1.2,0,2.5,0,3.7,0c0-0.6,0-1.2,0-1.9c1.2,0,2.5,0,3.7,0c0,1.2,0,2.5,0,3.7c-0.6,0-1.2,0-1.9,0c0,0.6,0,1.2,0,1.9
	c-0.6,0-1.2,0-1.9,0c0,3.2,0,6.4,0,9.5c0.6,0,1.2,0,1.9,0c0,0.6,0,1.2,0,1.9c0.6,0,1.2,0,1.9,0c0,0.6,0,1.2,0,1.9c0.6,0,1.2,0,1.9,0
	c0,3.7,0,7.5,0,11.2c0.6,0,1.2,0,1.9,0c0,0.6,0,1.2,0,1.9c3.1,0,6.2,0,9.4,0c0-2.5,0-5,0-7.5c0.6,0,1.2,0,1.9,0c0,0.6,0,1.2,0,1.9
	c1.2,0,2.5,0,3.7,0c0,0.6,0,1.2,0,1.9c2.5,0,5,0,7.5,0c0,0.6,0,1.2,0,1.9c1.2,0,2.5,0,3.7,0c0,0.6,0,1.2,0,1.9c1.9,0,3.7,0,5.6,0
	c0,0.6,0,1.2,0,1.9c1.3,0,2.6,0,3.9,0c0,0.7,0,1.4,0,2c6.9,0,13.7,0,20.6,0c0-1.9,0-3.9,0-5.8c-0.6,0-1.2,0-1.9,0c0-0.6,0-1.2,0-1.9
	c-0.6,0-1.2,0-1.9,0c0-0.6,0-1.2,0-1.9c-0.6,0-1.2,0-1.9,0c0-0.6,0-1.2,0-1.9c-1.2,0-2.5,0-3.7,0c0-0.6,0-1.2,0-1.9
	c-1.2,0-2.5,0-3.7,0c0-0.6,0-1.2,0-1.9c1.2,0,2.5,0,3.7,0c0-0.6,0-1.2,0-1.9c1.9,0,3.7,0,5.6,0c0-0.6,0-1.2,0-1.9c1.9,0,3.7,0,5.6,0
	c0-0.6,0-1.2,0-1.9c1.2,0,2.5,0,3.7,0c0-0.6,0-1.2,0-1.9c1.2,0,2.5,0,3.7,0c0-1.3,0-2.6,0-3.9c0.6,0,1.2,0,1.9,0c0,0.7,0,1.4,0,2
	c4.4,0,8.7,0,13.1,0c0-0.7,0-1.4,0-2c1.2,0,2.5,0,3.7,0c0-0.6,0-1.2,0-1.9c1.9,0,3.7,0,5.6,0c0-0.6,0-1.2,0-1.9c0.6,0,1.2,0,1.9,0
	c0,1.2,0,2.5,0,3.7c-0.6,0-1.2,0-1.9,0c0,1.9,0,3.9,0,5.8c-0.6,0-1.2,0-1.9,0c0,1.2,0,2.5,0,3.7c-0.6,0-1.2,0-1.9,0
	c0,1.2,0,2.5,0,3.7c-0.6,0-1.2,0-1.9,0c0,3.1,0,6.2,0,9.4c0.6,0,1.2,0,1.9,0c0,0.6,0,1.2,0,1.9c3.1,0,6.2,0,9.4,0c0-0.6,0-1.2,0-1.9
	c1.9,0,3.7,0,5.6,0c0-0.6,0-1.2,0-1.9c1.9,0,3.7,0,5.6,0c0-0.6,0-1.2,0-1.9c2.5,0,5,0,7.5,0c0-0.6,0-1.2,0-1.9c1.9,0,3.7,0,5.6,0
	c0-0.6,0-1.2,0-1.9c1.9,0,3.7,0,5.6,0c0-0.6,0-1.2,0-1.9c2.5,0,5,0,7.5,0c0-0.6,0-1.2,0-1.9c1.9,0,3.7,0,5.6,0c0-0.6,0-1.2,0-1.9
	c2.5,0,5,0,7.5,0c0-0.6,0-1.2,0-1.9c1.2,0,2.5,0,3.7,0c0,0.6,0,1.2,0,1.9c2.5,0,5,0,7.5,0c0-1.2,0-2.5,0-3.7c0.6,0,1.2,0,1.9,0
	c0-0.6,0-1.2,0-1.9c1.2,0,2.5,0,3.7,0c0-0.6,0-1.2,0-1.9c0.6,0,1.2,0,1.9,0c0-0.7,0-1.4,0-2c1.2,0,2.5,0,3.7,0c0-0.6,0-1.2,0-1.9
	c1.2,0,2.5,0,3.7,0c0,1.9,0,3.9,0,5.8c-0.6,0-1.2,0-1.9,0c0,9.4,0,18.8,0,28.2c-0.6,0-1.2,0-1.9,0c0,2.5,0,5,0,7.5
	c0.6,0,1.2,0,1.9,0c0,13.8,0,27.7,0,41.5c0.6,0,1.2,0,1.9,0c0,0.6,0,1.2,0,1.9c3.7,0,7.5,0,11.2,0c0-0.6,0-1.2,0-1.9
	c2.5,0,5,0,7.5,0c0-0.6,0-1.2,0-1.9c1.2,0,2.5,0,3.7,0c0-0.6,0-1.2,0-1.9c1.9,0,3.7,0,5.6,0c0-0.6,0-1.2,0-1.9c1.9,0,3.7,0,5.6,0
	c0-0.7,0-1.4,0-2c1.9,0,3.7,0,5.6,0c0-0.6,0-1.2,0-1.9c1.2,0,2.5,0,3.7,0c0-0.6,0-1.2,0-1.9c1.9,0,3.7,0,5.6,0c0-0.6,0-1.2,0-1.9
	c1.9,0,3.7,0,5.6,0c0-0.6,0-1.2,0-1.9c1.9,0,3.7,0,5.6,0c0-0.6,0-1.2,0-1.9c1.2,0,2.5,0,3.7,0c0-0.6,0-1.2,0-1.9c1.9,0,3.9,0,5.8,0
	c0-0.6,0-1.2,0-1.9c1.2,0,2.5,0,3.7,0c0-0.6,0-1.2,0-1.9c0.6,0,1.2,0,1.9,0c0-1.9,0-3.7,0-5.6c-0.6,0-1.2,0-1.9,0c0-0.6,0-1.2,0-1.9
	c-0.6,0-1.2,0-1.9,0c0-0.7,0-1.4,0-2c-1.9,0-3.7,0-5.6,0c0,0.7,0,1.4,0,2c-3.2,0-6.4,0-9.5,0c0,0.6,0,1.2,0,1.9c-1.9,0-3.7,0-5.6,0
	c0,0.6,0,1.2,0,1.9c-1.9,0-3.7,0-5.6,0c0,0.6,0,1.2,0,1.9c-0.6,0-1.2,0-1.9,0c0-0.6,0-1.2,0-1.9c0.6,0,1.2,0,1.9,0
	c0-0.6,0-1.2,0-1.9c0.6,0,1.2,0,1.9,0c0-0.6,0-1.2,0-1.9c0.6,0,1.2,0,1.9,0c0-0.7,0-1.4,0-2c0.6,0,1.2,0,1.9,0c0-0.6,0-1.2,0-1.9
	c0.6,0,1.2,0,1.9,0c0-0.6,0-1.2,0-1.9c0.6,0,1.2,0,1.9,0c0-0.6,0-1.2,0-1.9c0.6,0,1.2,0,1.9,0c0-0.6,0-1.2,0-1.9c0.6,0,1.2,0,1.9,0
	c0-0.6,0-1.2,0-1.9c0.6,0,1.2,0,1.9,0c0-1.2,0-2.5,0-3.7c0.6,0,1.2,0,1.9,0c0-0.6,0-1.2,0-1.9c0.6,0,1.2,0,1.9,0c0-1.2,0-2.5,0-3.7
	c0.7,0,1.4,0,2,0c0-1.2,0-2.5,0-3.7c0.6,0,1.2,0,1.9,0c0-0.7,0-1.4,0-2c0.6,0,1.2,0,1.9,0c0-1.2,0-2.5,0-3.7c0.6,0,1.2,0,1.9,0
	c0-1.2,0-2.5,0-3.7c0.6,0,1.2,0,1.9,0c0-1.2,0-2.5,0-3.7c0.6,0,1.2,0,1.9,0c0,4.4,0,8.8,0,13.3c0.6,0,1.2,0,1.9,0c0,1.9,0,3.7,0,5.6
	c0.6,0,1.2,0,1.9,0c0,0.6,0,1.2,0,1.9c0.6,0,1.2,0,1.9,0c0,0.6,0,1.2,0,1.9c0.6,0,1.2,0,1.9,0c0,0.6,0,1.2,0,1.9c1.2,0,2.5,0,3.7,0
	c0,0.6,0,1.2,0,1.9c3.7,0,7.5,0,11.2,0c0-0.6,0-1.2,0-1.9c1.2,0,2.5,0,3.7,0c0-0.6,0-1.2,0-1.9c0.6,0,1.2,0,1.9,0c0-0.6,0-1.2,0-1.9
	c0.6,0,1.2,0,1.9,0c0-1.2,0-2.5,0-3.7c0.6,0,1.2,0,1.9,0c0-1.2,0-2.5,0-3.7c0.6,0,1.2,0,1.9,0c0-2.6,0-5.1,0-7.7c0.6,0,1.2,0,1.9,0
	c0-1.9,0-3.7,0-5.6c0.6,0,1.2,0,1.9,0c0,4.4,0,8.8,0,13.3c0.6,0,1.2,0,1.9,0c0,0.6,0,1.2,0,1.9c3.7,0,7.5,0,11.2,0
	c0-0.6,0-1.2,0-1.9c1.9,0,3.7,0,5.6,0c0-0.7,0-1.4,0-2c1.2,0,2.5,0,3.7,0c0-0.6,0-1.2,0-1.9c1.9,0,3.7,0,5.6,0c0-0.6,0-1.2,0-1.9
	c1.9,0,3.7,0,5.6,0c0-0.6,0-1.2,0-1.9c1.2,0,2.5,0,3.7,0c0-0.6,0-1.2,0-1.9c0.6,0,1.2,0,1.9,0c0-0.6,0-1.2,0-1.9c0.6,0,1.2,0,1.9,0
	c0-1.9,0-3.7,0-5.6c-0.6,0-1.2,0-1.9,0c0-0.6,0-1.2,0-1.9c-5,0-10,0-15,0c0,0.6,0,1.2,0,1.9c-2.5,0-5,0-7.5,0c0,0.6,0,1.2,0,1.9
	c-1.2,0-2.5,0-3.7,0c0-2.5,0-5,0-7.5c1.2,0,2.5,0,3.7,0c0-0.6,0-1.2,0-1.9c1.2,0,2.5,0,3.7,0c0-0.7,0-1.4,0-2c1.9,0,3.7,0,5.6,0
	c0-0.6,0-1.2,0-1.9c1.2,0,2.5,0,3.7,0c0-3.1,0-6.2,0-9.4c-0.6,0-1.2,0-1.9,0c0-0.6,0-1.2,0-1.9c-2.5,0-5,0-7.5,0c0,0.6,0,1.2,0,1.9
	c-2.5,0-5,0-7.5,0c0-3.1,0-6.2,0-9.4c2.5,0,5,0,7.5,0c0-0.6,0-1.2,0-1.9c1.2,0,2.5,0,3.7,0c0-0.7,0-1.4,0-2c1.9,0,3.7,0,5.6,0
	c0-0.6,0-1.2,0-1.9c1.2,0,2.5,0,3.7,0c0-0.6,0-1.2,0-1.9c1.2,0,2.5,0,3.7,0c0-0.6,0-1.2,0-1.9c0.6,0,1.2,0,1.9,0c0-0.6,0-1.2,0-1.9
	c0.6,0,1.2,0,1.9,0c0-0.6,0-1.2,0-1.9c0.6,0,1.2,0,1.9,0c0-1.9,0-3.7,0-5.6C405.1,113.6,404.5,113.6,403.9,113.6z M274.6,98.5
	c0.6,0,1.2,0,1.9,0c0,1.9,0,3.7,0,5.6c3.1,0,6.2,0,9.4,0c0,1.3,0,2.6,0,3.9c-0.6,0-1.2,0-1.9,0c0,0.6,0,1.2,0,1.9
	c-0.6,0-1.2,0-1.9,0c0,0.6,0,1.2,0,1.9c-1.9,0-3.7,0-5.6,0c0-1.2,0-2.5,0-3.7c-0.6,0-1.2,0-1.9,0
	C274.6,104.8,274.6,101.6,274.6,98.5z M92.9,132.5H91c0,0.6,0,1.2,0,1.9c-0.6,0-1.2,0-1.9,0c0-2.6,0-5.1,0-7.7c0.6,0,1.2,0,1.9,0
	c0-0.6,0-1.2,0-1.9c1.9,0,3.7,0,5.6,0c0,0.6,0,1.2,0,1.9c-0.6,0-1.2,0-1.9,0c0,1.3,0,2.6,0,3.9c-0.6,0-1.2,0-1.9,0
	C92.9,131.2,92.9,131.9,92.9,132.5z M113.7,160.7c-1.3,0-2.6,0-3.9,0c0-0.6,0-1.2,0-1.9c-2.5,0-5,0-7.5,0c0-0.6,0-1.2,0-1.9
	c-1.2,0-2.5,0-3.7,0c0-0.6,0-1.2,0-1.9c-1.2,0-2.5,0-3.7,0c0-0.7,0-1.4,0-2c0.6,0,1.2,0,1.9,0c0-0.6,0-1.2,0-1.9c0.6,0,1.2,0,1.9,0
	c0-0.6,0-1.2,0-1.9c0.6,0,1.2,0,1.9,0c0-0.6,0-1.2,0-1.9c0.6,0,1.2,0,1.9,0c0-0.6,0-1.2,0-1.9c0.6,0,1.2,0,1.9,0c0-0.6,0-1.2,0-1.9
	c0.6,0,1.2,0,1.9,0c0-0.6,0-1.2,0-1.9c0.6,0,1.2,0,1.9,0c0-0.6,0-1.2,0-1.9c0.6,0,1.2,0,1.9,0c0-1.2,0-2.5,0-3.7c0.7,0,1.4,0,2,0
	c0-0.6,0-1.2,0-1.9c0.6,0,1.2,0,1.9,0C113.7,143.1,113.7,151.9,113.7,160.7z M145.5,141.8c-0.6,0-1.2,0-1.9,0c0,1.9,0,3.7,0,5.6
	c-5.6,0-11.2,0-16.8,0c0-1.2,0-2.5,0-3.7c0.6,0,1.2,0,1.9,0c0-0.6,0-1.2,0-1.9c0.6,0,1.2,0,1.9,0c0-0.6,0-1.2,0-1.9
	c1.2,0,2.5,0,3.7,0c0-0.6,0-1.2,0-1.9c1.2,0,2.5,0,3.7,0c0-0.6,0-1.2,0-1.9c0.6,0,1.2,0,1.9,0c0-2.6,0-5.1,0-7.7c-0.6,0-1.2,0-1.9,0
	c0-0.6,0-1.2,0-1.9c-3.1,0-6.2,0-9.4,0c0-1.9,0-3.7,0-5.6c1.2,0,2.5,0,3.7,0c0-0.6,0-1.2,0-1.9c1.2,0,2.5,0,3.7,0c0-0.6,0-1.2,0-1.9
	c1.9,0,3.7,0,5.6,0c0-0.6,0-1.2,0-1.9c1.2,0,2.5,0,3.7,0C145.5,124.3,145.5,133.1,145.5,141.8z M224.1,143.7c-1.9,0-3.7,0-5.6,0
	c0,0.6,0,1.2,0,1.9c-2.5,0-5,0-7.5,0c0,0.6,0,1.2,0,1.9h-7.5c0,0.6,0,1.2,0,1.9c-1.9,0-3.7,0-5.6,0c0,0.6,0,1.2,0,1.9
	c-1.9,0-3.7,0-5.6,0c0,0.6,0,1.2,0,1.9c-0.6,0-1.2,0-1.9,0c0-1.9,0-3.7,0-5.6c0.6,0,1.2,0,1.9,0c0-1.2,0-2.5,0-3.7
	c0.6,0,1.2,0,1.9,0c0-1.9,0-3.7,0-5.6c0.6,0,1.2,0,1.9,0c0-1.9,0-3.7,0-5.6c0.6,0,1.2,0,1.9,0c0-1.3,0-2.6,0-3.9c0.6,0,1.2,0,1.9,0
	c0-1.9,0-3.7,0-5.6c0.6,0,1.2,0,1.9,0c0-1.2,0-2.5,0-3.7c0.6,0,1.2,0,1.9,0c0-1.9,0-3.7,0-5.6c0.6,0,1.2,0,1.9,0c0-1.2,0-2.5,0-3.7
	c0.6,0,1.2,0,1.9,0c0,8.2,0,16.3,0,24.5c0.6,0,1.2,0,1.9,0c0,1.9,0,3.7,0,5.6c0.6,0,1.2,0,1.9,0c0,0.6,0,1.2,0,1.9c2.5,0,5,0,7.5,0
	c0-0.6,0-1.2,0-1.9c0.6,0,1.2,0,1.9,0c0-2.5,0-5,0-7.5c0.6,0,1.2,0,1.9,0c0-2.6,0-5.1,0-7.7c0.6,0,1.2,0,1.9,0
	C224.1,131.1,224.1,137.4,224.1,143.7z M225.9,117.3c-0.6,0-1.2,0-1.9,0c0-1.2,0-2.5,0-3.7c0.6,0,1.2,0,1.9,0
	C225.9,114.8,225.9,116.1,225.9,117.3z M312,160.7c-0.6,0-1.2,0-1.9,0c0,1.2,0,2.5,0,3.7c-0.6,0-1.2,0-1.9,0c0,1.2,0,2.5,0,3.7
	c-0.6,0-1.2,0-1.9,0c0,0.6,0,1.2,0,1.9c-0.6,0-1.2,0-1.9,0c0,1.2,0,2.5,0,3.7c-0.6,0-1.2,0-1.9,0c0,0.6,0,1.2,0,1.9
	c-0.6,0-1.2,0-1.9,0c0-3.7,0-7.5,0-11.2c-0.6,0-1.2,0-1.9,0c0-1.9,0-3.7,0-5.6c1.2,0,2.5,0,3.7,0c0-0.6,0-1.2,0-1.9
	c1.9,0,3.7,0,5.6,0c0-0.6,0-1.2,0-1.9c1.2,0,2.5,0,3.7,0C312,157,312,158.9,312,160.7z M342.1,175.7c-0.6,0-1.2,0-1.9,0
	c0-1.2,0-2.5,0-3.7c0.6,0,1.2,0,1.9,0C342.1,173.2,342.1,174.4,342.1,175.7z"/>
<g>
	<g>
		<g>
			<path class="st1" d="M257.7,123h1.9v-20.7h1.9V75.9h1.9V47.7h-1.9v-9.5h-2v11.6h1.9V72h-1.9v24.5h-1.9v18.9h-1.9v11.4h2V123z
				 M272.7,96.7h1.9v-9.4h1.9v-5.6h1.9v-2h1.9v-3.7h1.9v-3.7h1.9v-1.9h1.9v-1.9h1.9c0.1-0.7,0.1-1.4,0.2-2h-4.1v1.9h-1.9v1.9H280V72
				h-1.9v3.7h-1.9v3.7h-1.9v3.9h-1.9v9.4h-1.9v6h2V96.7z M297,81.7v-3.9h1.9v-9.5h-2v7.5H295v3.7h-1.9c0.1,0.7,0.1,1.5,0.2,2.2H297z
				 M199.6,113.5h-1.9v3.7h-1.9v5.6h-1.9v3.7h-1.9v7.7h-1.9v3.7h-1.9v5.6h-1.9v5.6h-1.9v6.1h2.2c-0.1-1.4-0.1-2.7-0.2-4.1h1.9v-5.6
				h1.9v-3.7h1.9v-5.6h1.9v-5.6h1.9v-3.9h1.9v-5.6h1.9v-3.7h1.9v-5.6h1.9v-3.7h1.9v-5.8h1.9v-3.7h1.9v-5.6h1.9v-5.6h1.9v-3.7h1.9
				v-5.8h1.9v-3.7h1.9v-3.7c-1.3-0.1-2.6-0.1-3.9-0.2v5.6h-1.9v3.7h-1.9v5.8h-1.9v5.6H207v3.7h-1.9v5.6h-1.9v3.7h-1.9v5.8h-1.9
				V113.5z M237.1,72.2c-0.7-0.1-1.4-0.1-2-0.2v2.2h2V72.2z M237,78h2v-2c-0.7-0.1-1.4-0.1-2-0.2V78z M182.9,85.5h9.4v-1.9h7.5
				c0.1-1.4,0.1-2.7,0.2-4.1h-4.1v2h-7.5v1.9h-7.5v1.9h-3.7v2h5.8V85.5z M83.6,100.4h7.5v-1.9h7.5v-1.9h3.7v-1.9h1.9v-1.9h1.9v-1.9
				h1.9v-3.7c-0.7-0.1-1.4-0.1-2-0.2V89H104v1.9h-1.9v1.9h-3.7v1.9h-3.7v1.9h-7.5v1.9h-5.6v1.9H74v1.9h-7.5v1.9H61v2h-7.5v1.9h-1.9
				v4.1h2v-2h3.7v-1.9H63v-1.9h7.5v-2h5.6v-1.9h7.5V100.4z M173.7,87.2h-13.4v2h13.3C173.6,88.5,173.6,87.8,173.7,87.2z M285.6,121
				H280v1.9h-1.9c0.1,0.7,0.1,1.4,0.2,2h5.6V123h3.7v-1.9h3.7v-1.9h1.9v-1.9h1.9v-5.6h1.9v-3.7h1.9v-7.7h1.9v-7.7h-2v1.9h-1.9v9.4
				H295v5.8h-1.9v3.7h-1.9v3.7h-1.9v1.9h-3.7V121z M156.5,121.3h2.2c-0.1-3.8-0.1-7.6-0.2-11.4h3.7v-1.9h1.9v-1.9h1.9v-2h5.6v-1.9
				h1.9v-1.9h1.9v-3.7c-0.7-0.1-1.4-0.1-2-0.2v1.9h-1.9v1.9h-3.7v1.9H164v1.9h-3.7v2h-1.9v1.9h-1.9v1.9h-1.9v9.7h1.9V121.3z
				 M218.3,126.6h-1.9v9.5h-1.9v3.9h2v-1.9h1.9v-7.5h1.9V123h1.9v-11.2h1.9v-9.5h1.9v-3.7c-1.3-0.1-2.6-0.1-3.9-0.2v7.7h-1.9v9.4
				h-1.9V126.6z M287.8,100.3H280v2h7.8V100.3z M235.3,138.2h1.9v-22.6h1.9c0.1-4.5,0.1-9,0.2-13.4H237v1.9h-1.9v30.3h-1.9v6h2
				V138.2z M272.7,104h-2v2.4h2V104z M141.6,111.7H136v1.9h-3.7v1.9h-5.6v1.9h-1.9v1.9h-1.9v4.1h1.9v3.4h-1.9v2.2h1.9v2h2.2
				c-0.1-3.9-0.1-7.7-0.2-11.6h3.7v-1.9h3.7v-1.9h5.6v-1.9h3.7V110c-0.7-0.1-1.4-0.1-2-0.2V111.7z M35.1,111.7h-2.2v1.9h-3.7v2
				c2.6,0.1,5.2,0.1,7.8,0.2v-2.2h-1.9V111.7z M53.6,121.2h1.9v-7.5c-0.7-0.1-1.4-0.1-2-0.2v1.9h-1.9v19.2h2V121.2z M21.8,117.4h3.7
				c0.1-0.7,0.1-1.4,0.2-2h-4.1C21.7,116.1,21.8,116.8,21.8,117.4z M399.9,115.4v1.9H398v1.9h-3.7v1.9h-3.7v1.9h-3.7v1.9h-3.7v1.9
				h-3.7v1.9h-5.6v2h-1.9v6h2v-5.8h7.5v-2h3.7v-1.9h5.6v-1.9h3.7V123h3.7v-1.9h1.9v-1.9h1.9v-1.9h1.9v-1.9
				C402.5,115.5,401.2,115.4,399.9,115.4z M89.2,124.9V123h9.5v-2H87.1v1.9h-1.9v17.3h2.2c-0.1-5.1-0.1-10.2-0.2-15.3H89.2z
				 M109.6,128.5h-1.9v3.9h-1.9v1.9H104v1.9h-1.9v1.9h-1.9v1.9h-1.9v3.7h-1.9v1.9h-3.7v1.9h-1.9v1.9H89v4.1c1.3-0.1,2.6-0.1,3.9-0.2
				v-1.9h1.9v-1.9h1.9v-1.9h1.9v-1.9h1.9v-1.9h1.9v-1.9h1.9v-1.9h1.9v-1.9h1.9v-3.7h1.9v-1.9h2c0.1-3.9,0.1-7.7,0.2-11.6h-2.4V128.5
				z M156.7,130.7h3.7v-2h3.7v-1.9h5.6v-1.9h1.9v-3.7c-0.7-0.1-1.4-0.1-2-0.2v1.9h-3.7v1.9h-3.7v1.9h-3.7v1.9h-1.9v2h-1.9v9.7h2
				V130.7z M66.6,126.8h6v-2h-6V126.8z M263.2,175.9h2v-7.7h1.9v-13.1h1.9v-11.4h11.2v-1.9h3.7v-1.9h5.6v-1.9h5.6v-1.9h7.5v-1.9h5.6
				v-1.9h5.6v-1.9h5.8v-2h1.9v-1.9h1.9v-1.9c-1.3-0.1-2.6-0.1-3.9-0.2v1.9h-3.7v1.9h-3.9v2h-5.6v1.9h-7.5v1.9h-5.6v1.9h-5.6v1.9H280
				v1.9h-3.7v1.9h-7.5v1.9h-1.9v5.6H265v15.1h-1.9V175.9z M124.9,141.9h1.9v-1.9h1.9v-1.9h3.7v-1.9h3.7v-1.9h1.9v-3.7
				c-0.7-0.1-1.4-0.1-2-0.2v1.9h-1.9v1.9h-5.6v1.9h-3.7v1.9h-1.9v11.6h2V141.9z M70.3,138h-1.9v1.9h-1.9v1.9h-3.7v1.9h-5.6v1.9h-1.9
				v2h3.9v-1.9h5.6v-1.9h3.7v-1.9h1.9v-1.9h1.9v-3.7c-0.7-0.1-1.4-0.1-2-0.2V138z M340.2,151.3h1.9v-5.6h1.9v-3.7h1.9v-1.9h1.9
				c0.1-1.3,0.1-2.6,0.2-3.9h-2.2v1.9h-1.9v3.7h-1.9v1.9H340v3.7h-1.9v5.6h-1.9v9.5h-1.9v4.1h1.9v7.5h2v-17h1.9V151.3z M357,147.5
				v-1.9h1.9v-5.6c-0.7-0.1-1.4-0.1-2-0.2v3.7H355c0.1,1.3,0.1,2.6,0.2,3.9H357z M166.1,147.5h3.7v-1.9h1.9v-1.9h1.9v-1.9
				c-1.3-0.1-2.6-0.1-3.9-0.2v1.9h-1.9v1.9H164v1.9h-5.6v1.9h-3.7v1.9h-3.7v2h5.8v-1.9h3.7v-1.9h5.6V147.5z M373.9,155.2h3.7v-2h3.7
				v-1.9h5.6v-1.9h3.7v-5.6c-0.7-0.1-1.4-0.1-2-0.2v1.9h-1.9v1.9h-1.9v1.9h-5.6v1.9h-3.7v1.9h-1.9v2h-1.9v9.7h2V155.2z M51.6,149.2
				h-1.9v41.5h-1.9v15.1H46c0.1,1.9,0.1,3.9,0.2,5.8H48v-1.9h1.9v-11.4h1.9v-49h1.9c0.1-0.7,0.1-1.4,0.2-2h-2.2V149.2z M242.6,149.2
				H237v1.9h-1.9v1.9h-1.9v2h-1.9v1.9h-1.9c0.1,1.3,0.1,2.6,0.2,3.9h3.7v-3.7h1.9v-1.9h3.7v-2h1.9v-1.9h3.7v-1.9h5.8v-2h-7.8V149.2z
				 M300.7,157.1v-1.9h5.6v-2h7.5c0.1-1.3,0.1-2.6,0.2-3.9h-4.1v1.9h-7.5v1.9h-5.6v2H295v11.6h1.9v13.3h1.9v3.7h2.2
				c-0.1-1.3-0.1-2.6-0.2-3.9h-1.9v-13.3H297v-9.4H300.7z M325.1,153h-1.9v7.7h-1.9v4.1c0.7-0.1,1.4-0.1,2-0.2v-3.7h1.9v-5.6h1.9v-6
				h-2V153z M139.7,151.1h-1.9v1.9H136v2h-3.7v1.9h-7.5v1.9H121v1.9h-3.7c0.1,0.7,0.1,1.4,0.2,2h5.6v-1.9h5.6v-1.9h5.6v-1.9h3.7
				v-1.9h3.7v-5.8h-2V151.1z M218.3,158.8h-5.6v1.9h-7.5v1.9h-5.6v1.9h-5.6v1.9h-7.5v1.9H179v1.9h-5.6v1.9h-5.6v1.9h-1.9
				c0.1,0.7,0.1,1.4,0.2,2h5.6v-1.9h5.6V172h5.6v-1.9h7.5v-1.9h5.6v-1.9h5.6v-1.9h7.5v-1.9h5.6v-1.9h7.5v-1.9h3.9v-2h-7.8V158.8z
				 M283.9,158.9h3.9v-2h-6v1.9H280v2h3.9V158.9z M358.7,160.6h-1.9v7.5H355v7.5h-1.9v3.9h-1.9v3.7h-1.9v1.9h-1.9v1.9h-3.7v1.9H340
				v2h5.8V189h3.7v-1.9h1.9v-1.9h1.9v-3.7h1.9v-3.9h1.9v-7.5h1.9v-5.6h1.9v-5.6c-0.7-0.1-1.4-0.1-2-0.2V160.6z M398,166.2h-1.9v1.9
				h-5.6v1.9h-3.7v1.9h-5.6v1.9h-5.6v1.9h-3.7v1.9h-5.6c0.1,0.7,0.1,1.5,0.2,2.2h7.5v-2h5.6v-1.9h3.7v-1.9h5.6V172h5.6v-1.9h3.7
				v-1.9h1.9v-1.9h1.9v-1.9c-1.3-0.1-2.6-0.1-3.9-0.2V166.2z M83.4,170h-1.9v3.9h3.9v-7.7h-2V170z M287.6,209.8v-1.9h3.7V206h1.9
				v-1.9h1.9v-2h1.9v-1.9h1.9v-1.9h1.9v-1.9h1.9v-1.9h1.9v-1.9h1.9v-1.9h1.9v-3.7h1.9v-1.9h1.9v-3.7h1.9v-3.9h2v-1.9h1.9V172h1.9
				v-3.7h1.9v-2h-2v1.9h-1.9v1.9h-1.9v3.7h-2v3.7h-1.9v2h-1.9v1.9h-1.9v3.7h-1.9v1.9h-1.9v3.7h-1.9v1.9h-1.9v1.9h-1.9v1.9h-1.9v1.9
				H295v1.9h-1.9v1.9h-1.9v2h-3.7v1.9h-3.7c0.1,0.7,0.1,1.4,0.2,2h1.9v1.9H287.6z M96.5,170.2h2.2v-2h-2.2V170.2z M117.2,177.6h7.8
				v-2h-7.8V177.6z M280,179.5h-1.9v1.9h-5.6v1.9h-3.7v1.9H265v1.9h-1.9v15h-1.9v17.3h2v-9.5h1.9V189h1.9v-1.9h5.6v-1.9h3.7v-1.9
				h3.7v-1.9h1.9v-3.9c-0.7-0.1-1.4-0.1-2-0.2V179.5z M319.5,209.6h-5.8v1.9h-3.7v1.9h-5.6v1.9h-5.6v1.9h-5.6v1.9h-3.7v1.9h-5.6v1.9
				H280v1.9h-5.6v1.9h-5.6v2h-7.5v1.9h-3.7v1.9h-5.6c0.1,0.7,0.1,1.4,0.2,2h7.5v-1.9h7.5v-1.9h3.7v-1.9h5.6v-2h5.6v-1.9h5.6v-1.9
				h3.7V221h5.6v-1.9h5.6v-1.9h5.6v-1.9h3.7v-1.9h5.8v-1.9h3.7v-1.9h1.9v-1.9c-1.3-0.1-2.6-0.1-3.9-0.2V209.6z"/>
		</g>
	</g>
</g>
<g>
	<g>
		<path class="st2" d="M319.6,206c0-0.6,0-1.2,0-1.9c-0.6,0-1.2,0-1.9,0c0,0.6,0,1.2,0,1.9c-3.2,0-6.3,0-9.5,0c0,0.6,0,1.2,0,1.9
			c-1.9,0-3.7,0-5.6,0c0,0.6,0,1.2,0,1.9c-1.9,0-3.7,0-5.6,0c0,0.6,0,1.2,0,1.9c-2.5,0-5,0-7.5,0c0,0.6,0,1.2,0,1.9
			c-1.9,0-3.7,0-5.6,0c0,0.6,0,1.2,0,1.9c-2.5,0-5,0-7.5,0c0,0.6,0,1.2,0,1.9c-1.9,0-3.7,0-5.6,0c0,0.6,0,1.2,0,1.9
			c-1.9,0-3.7,0-5.6,0c0,0.6,0,1.2,0,1.9c-0.6,0-1.2,0-1.9,0c0-0.7,0-1.4,0-2c-0.6,0-1.1,0-1.7,0c0-5.6,0-11.1,0-16.7
			c0.6,0,1.2,0,1.9,0c0-5,0-10,0-15c0.6,0,1.2,0,1.9,0c0-0.6,0-1.2,0-1.9c1.2,0,2.5,0,3.7,0c0-0.6,0-1.2,0-1.9c1.2,0,2.5,0,3.7,0
			c0-0.6,0-1.2,0-1.9c1.9,0,3.7,0,5.6,0c0-0.6,0-1.2,0-1.9c0.6,0,1.2,0,1.9,0c-0.1-1.4-0.1-2.7-0.2-4.1c-0.6,0-1.2,0-1.9,0
			c0-0.6,0-1.2,0-1.9c-1.2,0-2.5,0-3.7,0c0,0.6,0,1.2,0,1.9c-1.9,0-3.7,0-5.6,0c0,0.6,0,1.2,0,1.9c-1.2,0-2.5,0-3.7,0
			c0-0.7,0-1.4,0-2c-0.6,0-1.1,0-1.7,0c0-3.6,0-7.3,0-10.9c0.6,0,1.2,0,1.9,0c0-5,0-10.1,0-15.1c0.6,0,1.2,0,1.9,0
			c0-1.9,0-3.7,0-5.6c0.6,0,1.1,0,1.7,0c0.1-0.6,0.1-1.2,0.2-1.9c2.5,0,5,0,7.5,0c0-0.6,0-1.2,0-1.9c1.2,0,2.5,0,3.7,0
			c0-0.6,0-1.2,0-1.9c2.5,0,5,0,7.5,0c0-0.6,0-1.2,0-1.9c1.9,0,3.7,0,5.6,0c0-0.6,0-1.2,0-1.9c1.9,0,3.7,0,5.6,0c0-0.6,0-1.2,0-1.9
			c2.5,0,5,0,7.5,0c0-0.6,0-1.2,0-1.9c1.9,0,3.7,0,5.6,0c0-0.7,0-1.4,0-2c1.3,0,2.6,0,3.9,0c0-0.6,0-1.2,0-1.9c1.2,0,2.5,0,3.7,0
			c0-0.6,0-1.2,0-1.9c0.6,0,1.2,0,1.9,0c-0.1-0.7-0.1-1.4-0.2-2c-3.8,0-7.6,0-11.4,0c0,0.6,0,1.2,0,1.9c-2.5,0-5,0-7.5,0
			c0,0.6,0,1.2,0,1.9c-2.5,0-5,0-7.5,0c0,0.6,0,1.2,0,1.9c-2.5,0-5,0-7.5,0c0,0.7,0,1.4,0,2c-2.5,0-5,0-7.5,0c0,0.6,0,1.2,0,1.9
			c-2.5,0-5,0-7.5,0c0,0.6,0,1.2,0,1.9c-2.5,0-5,0-7.5,0c0,0.6,0,1.2,0,1.9c-1.9,0-3.7,0-5.6,0c0,0.6,0,1.2,0,1.9c-2.5,0-5,0-7.5,0
			c0,0.6,0,1.2,0,1.9c-1.9,0-3.7,0-5.6,0c0,0.6,0,1.2,0,1.9c-2.5,0-5,0-7.5,0c0,0.6,0,1.2,0,1.9c-1.2,0-2.5,0-3.7,0
			c0-1.3,0-2.6,0-3.9c-0.6,0-1.1,0-1.7,0c0-1.8,0-3.5,0-5.3c0.6,0,1.2,0,1.9,0c0-10.1,0-20.2,0-30.3c0.6,0,1.2,0,1.9,0
			c0-0.6,0-1.2,0-1.9c1.2-0.1,2.4-0.1,3.6-0.2c0,1.3,0,2.6,0,3.9c0.6,0,1.2,0,1.9,0c0,1.2,0,2.5,0,3.7c0.6,0,1.2,0,1.9,0
			c0,1.2,0,2.5,0,3.7c0.6,0,1.2,0,1.9,0c0,1.2,0,2.5,0,3.7c0.6,0,1.2,0,1.9,0c0,0.6,0,1.2,0,1.9c0.6,0,1.2,0,1.9,0
			c0,0.6,0,1.2,0,1.9c0.6,0,1.2,0,1.9,0c0,1.2,0,2.5,0,3.7c0.6,0,1.2,0,1.9,0c0,0.6,0,1.2,0,1.9c0.7,0,1.4,0,2,0c0-3.7,0-7.4,0-11.1
			c0.6,0,1.2,0,1.9,0c0-6.3,0-12.6,0-18.9c0.6,0,1.2,0,1.9,0c0-8.2,0-16.3,0-24.5c0.6,0,1.2,0,1.9,0c0-7.7,0-15.3,0-23
			c-0.6,0-1.2,0-1.9,0c0-3.6,0-7.3,0-10.9c0.6,0,1.1,0,1.7,0c0-0.7,0-1.4,0-2c-0.6,0-1.2,0-1.9,0c0-0.6,0-1.2,0-1.9
			c-1.2,0-2.5,0-3.7,0c0,2.5,0,5,0,7.5c-0.6,0-1.2,0-1.9,0c0,3.7,0,7.5,0,11.2c-0.6,0-1.2,0-1.9,0c0,5,0,10.1,0,15.1
			c-0.6,0-1.2,0-1.9,0c0,8.2,0,16.3,0,24.5c-0.6,0-1.2,0-1.9,0c0,0.6,0,1.2,0,1.9c-0.6,0-1.2,0-1.9,0c0-1.2,0-2.5,0-3.7
			c-0.6,0-1.2,0-1.9,0c0-1.2,0-2.5,0-3.7c-0.6,0-1.2,0-1.9,0c0-1.2,0-2.5,0-3.7c-0.6,0-1.2,0-1.9,0c0-1.3,0-2.6,0-3.9
			c-0.6,0-1.2,0-1.9,0c0-0.7,0-1.4,0-2c-0.6,0-1.1,0-1.7,0c-0.1-1.2-0.1-2.5-0.2-3.7c-0.6,0-1.1,0-1.7,0c-0.1-1.2-0.1-2.4-0.2-3.6
			c-0.6,0-1.2,0-1.9,0c0-0.6,0-1.2,0-1.9c-1.2,0-2.5,0-3.7,0c0,6.3,0,12.6,0,18.9c-0.6,0-1.2,0-1.9,0c0,10.7,0,21.3,0,32
			c-0.6,0-1.2,0-1.9,0c0,8.8,0,17.6,0,26.4c-1.9,0-3.7,0-5.6,0c0,0.6,0,1.2,0,1.9c-2.5,0-5,0-7.5,0c0,0.6,0,1.2,0,1.9
			c-2.5,0-5,0-7.5,0c0,0.6,0,1.2,0,1.9c-1.9,0-3.7,0-5.6,0c0,0.6,0,1.2,0,1.9c-1.9,0-3.7,0-5.6,0c0,0.7,0,1.4,0,2
			c-3.1-0.1-6.1-0.1-9.2-0.2c0-1.8,0-3.6,0-5.4c0.6,0,1.2,0,1.9,0c0-1.9,0-3.7,0-5.6c0.6,0,1.2,0,1.9,0c0-1.9,0-3.7,0-5.6
			c0.6,0,1.2,0,1.9,0c0-1.2,0-2.5,0-3.7c0.6,0,1.2,0,1.9,0c0-2.6,0-5.1,0-7.7c0.6,0,1.2,0,1.9,0c0-1.2,0-2.5,0-3.7
			c0.6,0,1.2,0,1.9,0c0-1.9,0-3.7,0-5.6c0.6,0,1.2,0,1.9,0c0-1.2,0-2.5,0-3.7c0.6,0,1.2,0,1.9,0c0-1.2,0-2.5,0-3.7
			c0.6,0,1.2,0,1.9,0c0-1.9,0-3.9,0-5.8c0.6,0,1.2,0,1.9,0c0-1.2,0-2.5,0-3.7c0.6,0,1.2,0,1.9,0c0-1.9,0-3.7,0-5.6
			c0.6,0,1.2,0,1.9,0c0-1.2,0-2.5,0-3.7c0.6,0,1.2,0,1.9,0c0-1.9,0-3.7,0-5.6c0.6,0,1.2,0,1.9,0c0-1.9,0-3.9,0-5.8
			c0.6,0,1.2,0,1.9,0c0-1.2,0-2.5,0-3.7c0.6,0,1.2,0,1.9,0c0-1.9,0-3.7,0-5.6c0.6,0,1.2,0,1.9,0c-0.1-0.7-0.1-1.4-0.2-2
			c-0.6,0-1.2,0-1.9,0c0-0.6,0-1.2,0-1.9c-1.9,0-3.7,0-5.6,0c0,0.6,0,1.2,0,1.9c-2.5,0-5,0-7.5,0c0,0.6,0,1.2,0,1.9
			c-1.9,0-3.7,0-5.6,0c0,0.6,0,1.2,0,1.9c-2.5,0-5,0-7.5,0c0,0.6,0,1.2,0,1.9c-2.5,0-5,0-7.5,0c0,0.6,0,1.2,0,1.9c-2.5,0-5,0-7.5,0
			c0,0.6,0,1.2,0,1.9c-1.9,0-3.7,0-5.6,0c0,0.6,0,1.2,0,1.9c-1.9,0-3.7,0-5.6,0c0,0.7,0,1.4,0,2c-0.6,0-1.2,0-1.9,0
			c0,0.6,0,1.2,0,1.9c-1.2,0-2.5,0-3.7,0c0,0.6,0,1.2,0,1.9c-0.6,0-1.2,0-1.9,0c0,0.6,0,1.2,0,1.9c1.2,0,2.5,0,3.7,0
			c0,0.6,0,1.2,0,1.9c0.7,0,1.4,0,2,0c0-0.6,0-1.1,0-1.7c5.6-0.1,11.2-0.1,16.8-0.2c0-0.6,0-1.1,0-1.7c1.2,0,2.5,0,3.7,0
			c0-0.6,0-1.2,0-1.9c2.5,0,5,0,7.5,0c0-0.6,0-1.2,0-1.9c2.5,0,5,0,7.5,0c0-0.7,0-1.4,0-2c1.1,0,2.3,0,3.4,0c0,0.7,0,1.4,0,2
			c0.7-0.1,1.4-0.1,2-0.2c0,0.6,0,1.2,0,1.9c-0.6,0-1.2,0-1.9,0c0,1.2,0,2.5,0,3.7c-0.6,0-1.2,0-1.9,0c0,1.9,0,3.7,0,5.6
			c-0.6,0-1.2,0-1.9,0c0,1.2,0,2.5,0,3.7c-0.6,0-1.2,0-1.9,0c0,1.9,0,3.7,0,5.6c-0.6,0-1.2,0-1.9,0c0,1.3,0,2.6,0,3.9
			c-0.6,0-1.2,0-1.9,0c0,1.9,0,3.7,0,5.6c-0.6,0-1.2,0-1.9,0c0,1.2,0,2.5,0,3.7c-0.6,0-1.2,0-1.9,0c0,1.2,0,2.5,0,3.7
			c-0.6,0-1.2,0-1.9,0c0,1.9,0,3.7,0,5.6c-0.6,0-1.2,0-1.9,0c0,1.2,0,2.5,0,3.7c-0.6,0-1.2,0-1.9,0c0,1.3,0,2.6,0,3.9
			c-0.6,0-1.2,0-1.9,0c0,1.9,0,3.7,0,5.6c-0.6,0-1.2,0-1.9,0c0,1.2,0,2.5,0,3.7c-0.6,0-1.2,0-1.9,0c0,1.9,0,3.7,0,5.6
			c-0.6,0-1.2,0-1.9,0c0,1.2,0,2.5,0,3.7c-0.6,0-1.2,0-1.9,0c0,1.3,0,2.6,0,3.9c-0.6,0-1.2,0-1.9,0c0,1.9,0,3.7,0,5.6
			c-0.6,0-1.2,0-1.9,0c0,1.2,0,2.5,0,3.7c-0.6,0-1.2,0-1.9,0c0,1.2,0,2.5,0,3.7c-0.6,0-1.2,0-1.9,0c0,1.9,0,3.7,0,5.6
			c1.3,0.1,2.6,0.1,3.9,0.2c0-0.6,0-1.2,0-1.9c1.9,0,3.7,0,5.6,0c0-0.6,0-1.2,0-1.9c1.9,0,3.7,0,5.6,0c0-0.6,0-1.2,0-1.9
			c2.5,0,5,0,7.5,0c0-0.6,0-1.2,0-1.9c2.5,0,5,0,7.5,0c0-0.6,0-1.2,0-1.9c1.9,0,3.7,0,5.6,0c0-0.6,0-1.2,0-1.9c1.9,0,3.7,0,5.6,0
			c0-0.6,0-1.2,0-1.9c2.5,0,5,0,7.5,0c0-0.6,0-1.2,0-1.9c1.9,0,3.7,0,5.6,0c0-0.6,0-1.2,0-1.9c2.4,0,4.8,0,7.1,0c0,0.6,0,1.1,0,1.7
			c1.4,0.1,2.7,0.1,4.1,0.2c0-0.6,0-1.2,0-1.9c0.6,0,1.2,0,1.9,0c0-0.6,0-1.2,0-1.9c0.6,0,1.2,0,1.9,0c0-0.7,0-1.4,0-2
			c0.6,0,1.2,0,1.9,0c0-0.6,0-1.2,0-1.9c0.6,0,1.2,0,1.9,0c0-0.6,0-1.2,0-1.9c1.9,0,3.7,0,5.6,0c0-0.6,0-1.2,0-1.9
			c2.4,0,4.8,0,7.1,0c0,0.6,0,1.1,0,1.7c0.7,0,1.4,0,2,0c0,3.2,0,6.3,0,9.5c-0.6,0-1.2,0-1.9,0c0,9.4,0,18.8,0,28.2
			c-0.6,0-1.2,0-1.9,0c0,1.2,0,2.5,0,3.7c0.6,0,1.2,0,1.9,0c0,13.8,0,27.7,0,41.5c2.6,0.1,5.1,0.1,7.7,0.2c0-0.6,0-1.2,0-1.9
			c1.2,0,2.5,0,3.7,0c0-0.6,0-1.2,0-1.9c2.5,0,5,0,7.5,0c0-0.7,0-1.4,0-2c1.9,0,3.7,0,5.6,0c0-0.6,0-1.2,0-1.9c1.9,0,3.7,0,5.6,0
			c0-0.6,0-1.2,0-1.9c1.2,0,2.5,0,3.7,0c0-0.6,0-1.2,0-1.9c1.9,0,3.7,0,5.6,0c0-0.6,0-1.2,0-1.9c1.2,0,2.5,0,3.7,0
			c0-0.6,0-1.2,0-1.9c1.9,0,3.7,0,5.6,0c0-0.6,0-1.2,0-1.9c1.9,0,3.7,0,5.6,0c0-0.6,0-1.2,0-1.9c1.9,0,3.7,0,5.6,0
			c0-0.6,0-1.2,0-1.9c1.2,0,2.5,0,3.7,0c0-0.6,0-1.2,0-1.9c1.9,0,3.9,0,5.8,0c0-0.6,0-1.2,0-1.9c0.6,0,1.2,0,1.9,0
			c-0.1-0.7-0.1-1.4-0.2-2C320.9,206,320.3,206,319.6,206z M265.2,111.8c0.6,0,1.2,0,1.9,0c0,1.2,0,2.5,0,3.7c0.6,0,1.2,0,1.9,0
			c0,0.6,0,1.2,0,1.9c0.6,0,1.2,0,1.9,0c0,0.6,0,1.2,0,1.9c0.6,0,1.2,0,1.9,0c0,0.6,0,1.2,0,1.9c0.6,0,1.2,0,1.9,0
			c0,0.6,0,1.2,0,1.9c1.9,0.1,3.9,0.1,5.8,0.2c0-0.6,0-1.2,0-1.9c1.9,0,3.7,0,5.6,0c0-0.6,0-1.2,0-1.9c1.2,0,2.5,0,3.7,0
			c0-0.6,0-1.2,0-1.9c0.6,0,1.2,0,1.9,0c0-1.2,0-2.5,0-3.7c0.6,0,1.2,0,1.9,0c0-1.2,0-2.5,0-3.7c0.6,0,1.2,0,1.9,0
			c0-1.9,0-3.9,0-5.8c0.6,0,1.2,0,1.9,0c0-3.1,0-6.2,0-9.4c0.6,0,1.2,0,1.9,0c0-0.6,0-1.2,0-1.9c0.6,0,1.1,0,1.7,0c0-0.7,0-1.4,0-2
			c-0.6,0-1.2,0-1.9,0c0-0.6,0-1.2,0-1.9c-1.2,0-2.5,0-3.7,0c0,0.6,0,1.2,0,1.9c-1.9,0-3.7,0-5.6,0c0,0.6,0,1.2,0,1.9
			c-1.2,0-2.5,0-3.7,0c0,0.6,0,1.2,0,1.9c-1.2,0-2.5,0-3.7,0c0,0.6,0,1.2,0,1.9c-0.6,0-1.2,0-1.9,0c0,0.6,0,1.2,0,1.9
			c-0.6,0-1.2,0-1.9,0c0,1.2,0,2.5,0,3.7c0.7,0,1.4,0,2,0c0-0.6,0-1.1,0-1.7c2.4,0,4.8,0,7.1,0c0,0.6,0,1.1,0,1.7c0.7,0,1.4,0,2,0
			c0,0.6,0,1.2,0,1.9c-0.6,0-1.2,0-1.9,0c0,1.9,0,3.9,0,5.8c-0.6,0-1.2,0-1.9,0c0,0.6,0,1.2,0,1.9c-0.6,0-1.2,0-1.9,0
			c0,0.6,0,1.2,0,1.9c-1.2,0-2.5,0-3.7,0c0,0.6,0,1.2,0,1.9c-1.2,0-2.5,0-3.7,0c0-0.6,0-1.2,0-1.9c-0.6,0-1.2,0-1.9,0
			c0-1.2,0-2.5,0-3.7c-0.6,0-1.2,0-1.9,0c0-1.3,0-2.6,0-3.9c-0.6,0-1.1,0-1.7,0c0-0.6,0-1.1,0-1.7c0.6,0,1.1,0,1.7,0c0-2,0-4,0-6
			c-0.6,0-1.1,0-1.7,0c0-1.8,0-3.5,0-5.3c0.6,0,1.2,0,1.9,0c0-3.1,0-6.2,0-9.4c0.6,0,1.2,0,1.9,0c0-1.3,0-2.6,0-3.9
			c0.6,0,1.2,0,1.9,0c0-1.2,0-2.5,0-3.7c0.6,0,1.2,0,1.9,0c0-1.2,0-2.5,0-3.7c0.6,0,1.2,0,1.9,0c0-0.6,0-1.2,0-1.9
			c0.6,0,1.2,0,1.9,0c0-0.6,0-1.2,0-1.9c0.6,0,1.2,0,1.9,0c0-0.6,0-1.2,0-1.9c1.8-0.1,3.6-0.1,5.4-0.2c0,1.2,0,2.5,0,3.7
			c0.6,0,1.2,0,1.9,0c0,3.1,0,6.2,0,9.4c1.3,0.1,2.6,0.1,3.9,0.2c0-1.2,0-2.5,0-3.7c0.6,0,1.2,0,1.9,0c0-2.5,0-5,0-7.5
			c0.6,0,1.1,0,1.7,0c0-0.7,0-1.4,0-2c-0.6,0-1.2,0-1.9,0c0-1.2,0-2.5,0-3.7c-0.6,0-1.2,0-1.9,0c0-0.6,0-1.2,0-1.9
			c-1.2,0-2.5,0-3.7,0c0-0.6,0-1.2,0-1.9c-0.6,0-1.2,0-1.9,0c0-0.6,0-1.2,0-1.9c-2.5,0-5,0-7.5,0c0,0.6,0,1.2,0,1.9
			c-0.6,0-1.2,0-1.9,0c0,0.6,0,1.2,0,1.9c-0.6,0-1.2,0-1.9,0c0,0.6,0,1.2,0,1.9c-0.6,0-1.2,0-1.9,0c0,0.6,0,1.2,0,1.9
			c-0.6,0-1.2,0-1.9,0c0,1.2,0,2.5,0,3.7c-0.6,0-1.2,0-1.9,0c0,0.6,0,1.2,0,1.9c-0.6,0-1.2,0-1.9,0c0,1.2,0,2.5,0,3.7
			c-0.6,0-1.2,0-1.9,0c0,1.9,0,3.7,0,5.6c-0.6,0-1.2,0-1.9,0c0,1.3,0,2.6,0,3.9c-0.6,0-1.2,0-1.9,0c0,3.7,0,7.5,0,11.2
			c-0.6,0-1.2,0-1.9,0c0,3.8,0,7.6,0,11.4c0.6,0,1.2,0,1.9,0C265.2,108.1,265.2,109.9,265.2,111.8z M61.1,134.4c0,0.6,0,1.2,0,1.9
			c-2.5,0-5,0-7.5,0c0-0.7,0-1.4,0-2c-0.6,0-1.1,0-1.7,0c0-6.2,0-12.4,0-18.5c0.6,0,1.2,0,1.9,0c-0.1-1.4-0.1-2.7-0.2-4.1
			c-0.6,0-1.1,0-1.7,0c0-1.1,0-2.3,0-3.4c0.6,0,1.2,0,1.9,0c0-0.6,0-1.2,0-1.9c2.5,0,5,0,7.5,0c0-0.7,0-1.4,0-2c1.9,0,3.7,0,5.6,0
			c0-0.6,0-1.2,0-1.9c2.5,0,5,0,7.5,0c0-0.6,0-1.2,0-1.9c2.5,0,5,0,7.5,0c0-0.6,0-1.2,0-1.9c1.9,0,3.7,0,5.6,0c0-0.6,0-1.2,0-1.9
			c2.5,0,5,0,7.5,0c0-0.6,0-1.2,0-1.9c1.2,0,2.5,0,3.7,0c0-0.6,0-1.2,0-1.9c1.2,0,2.5,0,3.7,0c0-0.6,0-1.2,0-1.9c0.6,0,1.2,0,1.9,0
			c0-0.6,0-1.2,0-1.9c0.6,0,1.2,0,1.9,0c-0.1-1.3-0.1-2.6-0.2-3.9c-4.4,0-8.7,0-13.1,0c0,0.6,0,1.2,0,1.9c-1.9,0-3.7,0-5.6,0
			c0,0.6,0,1.2,0,1.9c-2.5,0-5,0-7.5,0c0,0.6,0,1.2,0,1.9c-3.7,0-7.5,0-11.2,0c0,0.6,0,1.2,0,1.9c-1.2,0-2.5,0-3.7,0
			c0,0.6,0,1.2,0,1.9c-1.9,0-3.7,0-5.6,0c0,0.6,0,1.2,0,1.9c-1.9,0-3.7,0-5.6,0c0,0.6,0,1.2,0,1.9c-2.5,0-5,0-7.5,0
			c0,0.6,0,1.2,0,1.9c-0.6,0-1.2,0-1.9,0c0-0.6,0-1.2,0-1.9c-1.2,0-2.5,0-3.7,0c0,0.6,0,1.2,0,1.9c-0.6,0-1.2,0-1.9,0
			c0,0.6,0,1.2,0,1.9c-2.5,0-5,0-7.5,0c0,0.6,0,1.2,0,1.9c-1.2,0-2.5,0-3.7,0c0,0.7,0,1.4,0,2c-1.9,0-3.7,0-5.6,0c0,0.6,0,1.2,0,1.9
			c-0.6,0-1.2,0-1.9,0c0,0.6,0,1.2,0,1.9c-0.6,0-1.2,0-1.9,0c0,1.2,0,2.5,0,3.7c0.6,0,1.2,0,1.9,0c0,0.6,0,1.2,0,1.9
			c3.2,0,6.3,0,9.5,0c0-0.6,0-1.1,0-1.7c1.2,0,2.5,0,3.7,0c0-0.6,0-1.2,0-1.9c0.5,0,1,0,1.5,0c0,0.6,0,1.2,0,1.9c0.6,0,1.2,0,1.9,0
			c0.1,3.1,0.1,6.1,0.2,9.2c0.6,0,1.2,0,1.9,0c0,1.9,0,3.7,0,5.6c-0.6,0-1.2,0-1.9,0c0,3.2,0,6.3,0,9.5c0.6,0,1.2,0,1.9,0
			c0,0.6,0,1.2,0,1.9c-0.6,0-1.2,0-1.9,0c0,3.1,0,6.2,0,9.4c0.6,0,1.2,0,1.9,0c0,5,0,10.1,0,15.1c0.6,0,1.2,0,1.9,0
			c0,0.6,0,1.2,0,1.9c-0.6,0-1.2,0-1.9,0c0,1.2,0,2.5,0,3.7c0.6,0,1.2,0,1.9,0c0,10,0,20.1,0,30.1c0.6,0,1.2,0,1.9,0
			c0,2.6,0,5.1,0,7.7c0.6,0,1.2,0,1.9,0c0,0.6,0,1.2,0,1.9c0.7,0.1,1.4,0.1,2,0.2c0-1.2,0-2.5,0-3.7c0.6,0,1.2,0,1.9,0
			c0-5,0-10.1,0-15.1c0.6,0,1.2,0,1.9,0c0-13.8,0-27.7,0-41.5c0.6,0,1.1,0,1.7,0c0.1-0.6,0.1-1.2,0.2-1.9c1.2-0.1,2.5-0.1,3.7-0.2
			c0-0.6,0-1.1,0-1.7c0.6,0,1.2,0,1.9,0c0-0.6,0-1.2,0-1.9c1.9,0,3.7,0,5.6,0c0-0.6,0-1.2,0-1.9c1.2,0,2.5,0,3.7,0
			c0-0.6,0-1.2,0-1.9c0.6,0,1.2,0,1.9,0c0-0.6,0-1.2,0-1.9c0.6,0,1.2,0,1.9,0c-0.1-1.3-0.1-2.6-0.2-3.9
			C67.4,134.4,64.3,134.4,61.1,134.4z M212.8,91.1c0,1.2,0,2.5,0,3.7c-0.6,0-1.2,0-1.9,0c0,1.2,0,2.5,0,3.7c-0.6,0-1.2,0-1.9,0
			c0,0.6,0,1.2,0,1.9c0.6,0,1.2,0,1.9,0c0,1.2,0,2.5,0,3.7c-0.6,0-1.2,0-1.9,0c0,9.5,0,18.9,0,28.4c0.6,0,1.2,0,1.9,0
			c0,1.9,0,3.7,0,5.6c0.6,0,1.2,0,1.9,0c0,0.6,0,1.2,0,1.9c0.7,0,1.4,0,2,0c0-1.2,0-2.4,0-3.6c0.6,0,1.2,0,1.9,0c0-3.2,0-6.3,0-9.5
			c0.6,0,1.2,0,1.9,0c0-3.7,0-7.5,0-11.2c0.6,0,1.2,0,1.9,0c0-3.1,0-6.2,0-9.4c0.6,0,1.2,0,1.9,0c0-2.6,0-5.1,0-7.7
			c0.6,0,1.2,0,1.9,0c-0.1-0.7-0.1-1.4-0.2-2c-0.6,0-1.2,0-1.9,0c0-0.6,0-1.2,0-1.9c-0.6,0-1.2,0-1.9,0c0-0.6,0-1.2,0-1.9
			c-0.6,0-1.2,0-1.9,0c0-0.6,0-1.2,0-1.9C216.6,91.1,214.7,91.1,212.8,91.1z M164.4,145.8c1.2,0,2.5,0,3.7,0c0-0.6,0-1.2,0-1.9
			c0.6,0,1.2,0,1.9,0c0-0.6,0-1.2,0-1.9c0.6,0,1.2,0,1.9,0c-0.1-0.7-0.1-1.4-0.2-2c-4.4,0-8.7,0-13.1,0c0,0.6,0,1.2,0,1.9
			c-0.6,0-1.2,0-1.9,0c0-0.7,0-1.4,0-2c-0.6,0-1.1,0-1.7,0c0-3,0-6,0-9c0.6,0,1.1,0,1.7,0c0.1-0.7,0.1-1.4,0.2-2c0.6,0,1.2,0,1.9,0
			c0-0.6,0-1.2,0-1.9c1.2,0,2.5,0,3.7,0c0-0.6,0-1.2,0-1.9c1.2,0,2.5,0,3.7,0c0-0.6,0-1.2,0-1.9c1.2,0,2.5,0,3.7,0
			c-0.1-1.3-0.1-2.6-0.2-3.9c-2.5,0-5,0-7.5,0c0,0.6,0,1.2,0,1.9c-1.8-0.1-3.6-0.1-5.4-0.2c0-0.6,0-1.2,0-1.9c-0.6,0-1.2,0-1.9,0
			c0-3,0-6,0-9c0.6,0,1.2,0,1.9,0c0-0.6,0-1.2,0-1.9c0.6,0,1.2,0,1.9,0c0-0.6,0-1.2,0-1.9c0.6,0,1.2,0,1.9,0c0-0.7,0-1.4,0-2
			c1.2,0,2.5,0,3.7,0c0-0.6,0-1.2,0-1.9c1.2,0,2.5,0,3.7,0c0-0.6,0-1.2,0-1.9c1.2,0,2.5,0,3.7,0c0-0.6,0-1.2,0-1.9
			c0.6,0,1.2,0,1.9,0c-0.1-1.3-0.1-2.6-0.2-3.9c-1.2,0-2.5,0-3.7,0c0,0.6,0,1.2,0,1.9c-3.1,0-6.2,0-9.4,0c0,0.6,0,1.2,0,1.9
			c-2.5,0-5,0-7.5,0c0,0.6,0,1.2,0,1.9c-1.2,0-2.5,0-3.7,0c0,0.6,0,1.2,0,1.9c-0.6,0-1.2,0-1.9,0c0,0.6,0,1.2,0,1.9
			c-0.6,0-1.2,0-1.9,0c0,1.9,0,3.9,0,5.8c1.2,0,2.5,0,3.7,0c0,1.2,0,2.5,0,3.7c-0.6,0-1.2,0-1.9,0c0,10,0,20.1,0,30.1
			c-0.6,0-1.2,0-1.9,0c0,2.5,0,5,0,7.5c0.6,0,1.2,0,1.9,0c0,0.6,0,1.2,0,1.9c1.3,0,2.6,0,3.9,0c0-0.6,0-1.1,0-1.7c1.2,0,2.5,0,3.7,0
			c0-0.6,0-1.2,0-1.9c1.2,0,2.5,0,3.7,0c0-0.6,0-1.2,0-1.9c1.9,0,3.7,0,5.6,0C164.4,147.1,164.4,146.5,164.4,145.8z M125.1,119.5
			c0-0.6,0-1.2,0-1.9c0.6,0,1.2,0,1.9,0c0-0.6,0-1.2,0-1.9c1.9,0,3.7,0,5.6,0c0-0.6,0-1.2,0-1.9c1.2,0,2.5,0,3.7,0
			c0-0.6,0-1.2,0-1.9c1.9,0,3.7,0,5.6,0c-0.1-1.3-0.1-2.6-0.2-3.9c-3.7,0-7.5,0-11.2,0c0,0.6,0,1.2,0,1.9c-1.9,0-3.7,0-5.6,0
			c0,0.6,0,1.2,0,1.9c-3.1,0-6.2,0-9.4,0c0,0.6,0,1.2,0,1.9c-0.6,0-1.2,0-1.9,0c0,0.6,0,1.2,0,1.9c-0.6,0-1.2,0-1.9,0
			c0,0.6,0,1.2,0,1.9c-1.3,0-2.6,0-3.9,0c0-0.6,0-1.2,0-1.9c-0.6,0-1.2,0-1.9,0c0-0.6,0-1.2,0-1.9c-1.2,0-2.5,0-3.7,0
			c0-0.6,0-1.2,0-1.9c-6.9,0-13.7,0-20.6,0c0,0.6,0,1.2,0,1.9c-1.9,0-3.7,0-5.6,0c0,0.6,0,1.2,0,1.9c-1.2,0-2.5,0-3.7,0
			c0,0.6,0,1.2,0,1.9c-1.9,0-3.7,0-5.6,0c0,0.6,0,1.2,0,1.9c-0.6,0-1.2,0-1.9,0c0,0.6,0,1.2,0,1.9c-0.6,0-1.2,0-1.9,0
			c0,0.6,0,1.2,0,1.9c-0.6,0-1.2,0-1.9,0c0,0.6,0,1.2,0,1.9c1.2,0,2.5,0,3.7,0c0,0.6,0,1.2,0,1.9c0.7,0,1.4,0,2,0c0-0.6,0-1.1,0-1.7
			c1.8,0,3.5,0,5.3,0c0,0.6,0,1.1,0,1.7c1.3,0,2.6,0,3.9,0c0,2.6,0,5.1,0,7.7c-0.6,0-1.2,0-1.9,0c0,2.5,0,5,0,7.5c0.6,0,1.2,0,1.9,0
			c0,2.5,0,5,0,7.5c-0.6,0-1.2,0-1.9,0c0,0.6,0,1.2,0,1.9c-0.6,0-1.2,0-1.9,0c0,1.9,0,3.9,0,5.8c0.6,0,1.2,0,1.9,0
			c0,0.6,0,1.2,0,1.9c0.6,0,1.2,0,1.9,0c0,0.6,0,1.2,0,1.9c0.6,0,1.2,0,1.9,0c0,3.7,0,7.5,0,11.2c0.6,0,1.2,0,1.9,0
			c0,0.6,0,1.2,0,1.9c0.7,0,1.4,0,2,0c0-1.2,0-2.4,0-3.6c0.6,0,1.2,0,1.9,0c0-1.2,0-2.5,0-3.7c0.6,0,1.1,0,1.7,0c0-0.7,0-1.4,0-2
			c0.6,0,1.2,0,1.9,0c0,0.6,0,1.2,0,1.9c1.2,0,2.5,0,3.7,0c0,0.6,0,1.2,0,1.9c1.2,0,2.5,0,3.7,0c0,0.6,0,1.2,0,1.9c0.7,0,1.4,0,2,0
			c0-0.6,0-1.1,0-1.7c0.5,0,1,0,1.5,0c0,0.6,0,1.1,0,1.7c1.3,0,2.6,0,3.9,0c0,0.6,0,1.2,0,1.9c1.2,0,2.5,0,3.7,0c0,0.6,0,1.2,0,1.9
			c1.9,0,3.9,0,5.8,0c0,0.6,0,1.2,0,1.9c1.2,0,2.5,0,3.7,0c0,0.6,0,1.2,0,1.9c0.7,0,1.4,0,2,0c0-0.6,0-1.1,0-1.7c2.4,0,4.8,0,7.1,0
			c0,0.6,0,1.1,0,1.7c2.6,0,5.1,0,7.7,0c0-0.6,0-1.2,0-1.9c-0.6,0-1.2,0-1.9,0c0-0.6,0-1.2,0-1.9c-0.6,0-1.2,0-1.9,0
			c0-0.6,0-1.2,0-1.9c-0.6,0-1.2,0-1.9,0c0-0.6,0-1.2,0-1.9c-1.2,0-2.5,0-3.7,0c0-0.6,0-1.2,0-1.9c-1.2,0-2.5,0-3.7,0
			c0-0.6,0-1.2,0-1.9c-1.2,0-2.5,0-3.7,0c0-0.6,0-1.2,0-1.9c-1.2,0-2.5,0-3.7,0c0-0.6,0-1.2,0-1.9c-1.3,0-2.6,0-3.9,0
			c0-0.6,0-1.2,0-1.9c-2.5,0-5,0-7.5,0c0-0.6,0-1.2,0-1.9c-1.2,0-2.5,0-3.7,0c0-0.6,0-1.2,0-1.9c-1.9,0-3.7,0-5.6,0
			c0-0.6,0-1.2,0-1.9c-0.6,0-1.2,0-1.9,0c0.1-1.9,0.1-3.7,0.2-5.6c0.6,0,1.2,0,1.9,0c0-0.6,0-1.2,0-1.9c0.6,0,1.2,0,1.9,0
			c0-0.6,0-1.2,0-1.9c1.2,0,2.5,0,3.7,0c0-0.6,0-1.2,0-1.9c0.6,0,1.2,0,1.9,0c0-1.2,0-2.5,0-3.7c0.6,0,1.2,0,1.9,0
			c0-0.6,0-1.2,0-1.9c0.6,0,1.2,0,1.9,0c0-0.6,0-1.2,0-1.9c0.6,0,1.2,0,1.9,0c0-0.6,0-1.2,0-1.9c0.6,0,1.2,0,1.9,0
			c0-0.6,0-1.2,0-1.9c0.6,0,1.2,0,1.9,0c0-1.3,0-2.6,0-3.9c0.6,0,1.2,0,1.9,0c0-2.5,0-5,0-7.5c1.2-0.1,2.5-0.1,3.7-0.2
			c0,0.6,0,1.2,0,1.9c0.6,0,1.2,0,1.9,0c0,12.6,0,25.2,0,37.8c1.9,0.1,3.9,0.1,5.8,0.2c0-0.6,0-1.2,0-1.9c1.2,0,2.5,0,3.7,0
			c0-0.6,0-1.2,0-1.9c2.5,0,5,0,7.5,0c0-0.6,0-1.2,0-1.9c1.2,0,2.5,0,3.7,0c0-0.7,0-1.4,0-2c0.6,0,1.2,0,1.9,0c0-0.6,0-1.2,0-1.9
			c0.6,0,1.2,0,1.9,0c0-0.7,0-1.4,0-2c-3.8,0-7.6,0-11.4,0c0,0.6,0,1.2,0,1.9c-1.2,0-2.5,0-3.7,0c0-0.7,0-1.4,0-2
			c-0.6,0-1.1,0-1.7,0c0-3.6,0-7.3,0-10.9c0.6,0,1.2,0,1.9,0c0-0.6,0-1.2,0-1.9c1.2,0,2.5,0,3.7,0c0-0.6,0-1.2,0-1.9
			c1.9,0,3.7,0,5.6,0c0-0.6,0-1.2,0-1.9c0.6,0,1.2,0,1.9,0c-0.1-1.4-0.1-2.7-0.2-4.1c-3.2-0.1-6.3-0.1-9.5-0.2c0,0.7,0,1.4,0,2
			c-0.5,0-1,0-1.5,0c0-0.7,0-1.4,0-2c-0.6,0-1.2,0-1.9,0c0-0.5,0-1,0-1.5c0.6,0,1.2,0,1.9,0c0-1.4,0-2.7,0-4.1c-0.6,0-1.2,0-1.9,0
			c0-1.1,0-2.3,0-3.4C123.8,119.5,124.5,119.5,125.1,119.5z M100.4,126.8c-0.6,0-1.2,0-1.9,0c0,0.6,0,1.2,0,1.9c-0.6,0-1.2,0-1.9,0
			c0,1.3,0,2.6,0,3.9c-0.6,0-1.2,0-1.9,0c0,0.6,0,1.2,0,1.9c-0.6,0-1.2,0-1.9,0c0,0.6,0,1.2,0,1.9c-0.6,0-1.2,0-1.9,0
			c0,0.6,0,1.2,0,1.9c-0.6,0-1.2,0-1.9,0c0,0.6,0,1.2,0,1.9c-1.2-0.1-2.4-0.1-3.6-0.2c0-5.6,0-11.1,0-16.7c0.6,0,1.2,0,1.9,0
			c0-0.6,0-1.2,0-1.9c3.6,0,7.3,0,10.9,0c0,0.6,0,1.1,0,1.7c0.7,0,1.4,0,2,0C100.4,124.3,100.4,125.5,100.4,126.8z M401.9,113.7
			c-3.1,0-6.2,0-9.4,0c0,0.6,0,1.2,0,1.9c-3.1,0-6.2,0-9.4,0c0,0.6,0,1.2,0,1.9c-1.9,0-3.7,0-5.6,0c0,0.6,0,1.2,0,1.9
			c-2.5,0-5,0-7.5,0c0,0.6,0,1.2,0,1.9c-2.5,0-5,0-7.5,0c0,0.6,0,1.2,0,1.9c-0.6,0-1.2,0-1.9,0c0,2.6,0,5.1,0,7.7c0.6,0,1.2,0,1.9,0
			c0,0.6,0,1.2,0,1.9c0.6,0,1.2,0,1.9,0c0,15,0,30,0,45.1c2.6,0.1,5.1,0.1,7.7,0.2c0-0.6,0-1.2,0-1.9c1.2,0,2.5,0,3.7,0
			c0-0.6,0-1.2,0-1.9c1.9,0,3.7,0,5.6,0c0-0.6,0-1.2,0-1.9c1.9,0,3.7,0,5.6,0c0-0.6,0-1.2,0-1.9c1.2,0,2.5,0,3.7,0
			c0-0.6,0-1.2,0-1.9c1.9,0,3.7,0,5.6,0c0-0.6,0-1.2,0-1.9c0.6,0,1.2,0,1.9,0c0-0.6,0-1.2,0-1.9c0.6,0,1.2,0,1.9,0
			c-0.1-0.7-0.1-1.4-0.2-2c-3.7,0-7.5,0-11.2,0c0,0.6,0,1.2,0,1.9c-2.5,0-5,0-7.5,0c0,0.6,0,1.2,0,1.9c-2.5,0-5,0-7.5,0
			c0-0.7,0-1.4,0-2c-0.6,0-1.1,0-1.7,0c0-3,0-6,0-9c0.6,0,1.1,0,1.7,0c0.1-0.7,0.1-1.4,0.2-2c0.6,0,1.2,0,1.9,0c0-0.6,0-1.2,0-1.9
			c1.2,0,2.5,0,3.7,0c0-0.6,0-1.2,0-1.9c1.9,0,3.7,0,5.6,0c0-0.6,0-1.2,0-1.9c0.6,0,1.2,0,1.9,0c0-0.6,0-1.2,0-1.9
			c0.6,0,1.2,0,1.9,0c-0.1-1.3-0.1-2.6-0.2-3.9c-1.2,0-2.5,0-3.7,0c0,0.6,0,1.2,0,1.9c-3.1,0-6.2,0-9.4,0c0,0.6,0,1.2,0,1.9
			c-0.6,0-1.2,0-1.9,0c0-3.2,0-6.3,0-9.5c-0.6,0-1.1,0-1.7,0c0-1.8,0-3.5,0-5.3c0.6,0,1.1,0,1.7,0c0.1-0.7,0.1-1.4,0.2-2
			c1.9,0,3.7,0,5.6,0c0-0.6,0-1.2,0-1.9c1.2,0,2.5,0,3.7,0c0-0.6,0-1.2,0-1.9c1.2,0,2.5,0,3.7,0c0-0.6,0-1.2,0-1.9
			c1.2,0,2.5,0,3.7,0c0-0.6,0-1.2,0-1.9c1.2,0,2.5,0,3.7,0c0-0.6,0-1.2,0-1.9c1.2,0,2.5,0,3.7,0c0-0.6,0-1.2,0-1.9
			c0.6,0,1.2,0,1.9,0c0-0.6,0-1.2,0-1.9c0.6,0,1.2,0,1.9,0C402.1,115,402,114.4,401.9,113.7z M353.3,157.1c0,0.6,0,1.2,0,1.9
			c-0.6,0-1.2,0-1.9,0c0,0.6,0,1.2,0,1.9c-1.2,0-2.5,0-3.7,0c0,0.6,0,1.2,0,1.9c-0.6,0-1.2,0-1.9,0c0,0.6,0,1.2,0,1.9
			c-1.2,0-2.5,0-3.7,0c0,1.9,0,3.7,0,5.6c0.6,0,1.2,0,1.9,0c0,0.6,0,1.2,0,1.9c0.6,0,1.2,0,1.9,0c0,0.6,0,1.2,0,1.9
			c-0.6,0-1.2,0-1.9,0c0,1.2,0,2.5,0,3.7c-0.6,0-1.2,0-1.9,0c0,0.7,0,1.4,0,2c-0.6,0-1.2,0-1.9,0c0-0.7,0-1.4,0-2
			c-0.6,0-1.2,0-1.9,0c0-1.3,0-2.6,0-3.9c-0.6,0-1.1,0-1.7,0c0-2.5,0-5,0-7.5c-0.6,0-1.2,0-1.9,0c0-1.1,0-2.3,0-3.4
			c0.6,0,1.2,0,1.9,0c0-3.2,0-6.3,0-9.5c0.6,0,1.2,0,1.9,0c0-1.9,0-3.7,0-5.6c0.6,0,1.2,0,1.9,0c0-1.2,0-2.5,0-3.7
			c0.6,0,1.2,0,1.9,0c0-0.6,0-1.2,0-1.9c0.6,0,1.1,0,1.7,0c0.1-1.2,0.1-2.5,0.2-3.7c0.6,0,1.2,0,1.9,0c0-0.6,0-1.2,0-1.9
			c0.5,0,1,0,1.5,0c0,0.6,0,1.2,0,1.9c1.3-0.1,2.6-0.1,3.9-0.2c0,1.2,0,2.5,0,3.7c0.6,0,1.2,0,1.9,0c0,1.2,0,2.5,0,3.7
			c0.7,0.1,1.4,0.1,2,0.2c0-0.6,0-1.2,0-1.9c0.6,0,1.2,0,1.9,0c-0.1-2.6-0.1-5.1-0.2-7.7c-0.6,0-1.2,0-1.9,0c0-0.6,0-1.2,0-1.9
			c-0.6,0-1.2,0-1.9,0c0-0.6,0-1.2,0-1.9c-0.6,0-1.2,0-1.9,0c0-0.6,0-1.2,0-1.9c-3.7,0-7.5,0-11.2,0c0,0.6,0,1.2,0,1.9
			c-0.6,0-1.2,0-1.9,0c0,0.6,0,1.2,0,1.9c-0.6,0-1.2,0-1.9,0c0,1.2,0,2.5,0,3.7c-0.6,0-1.2,0-1.9,0c0,1.2,0,2.5,0,3.7
			c-0.6,0-1.2,0-1.9,0c0,1.2,0,2.5,0,3.7c-0.6,0-1.2,0-1.9,0c0,1.9,0,3.7,0,5.6c-0.6,0-1.2,0-1.9,0c0,2.6,0,5.1,0,7.7
			c-0.6,0-1.2,0-1.9,0c0,6.2,0,12.5,0,18.7c0.6,0,1.2,0,1.9,0c0,1.9,0,3.9,0,5.8c0.6,0,1.2,0,1.9,0c0,0.6,0,1.2,0,1.9
			c0.6,0,1.2,0,1.9,0c0,0.6,0,1.2,0,1.9c0.6,0,1.2,0,1.9,0c0,0.6,0,1.2,0,1.9c1.2,0,2.5,0,3.7,0c0,0.6,0,1.2,0,1.9c0.7,0,1.4,0,2,0
			c0-0.6,0-1.1,0-1.7c1.2,0,2.5,0,3.7,0c0-0.6,0-1.2,0-1.9c1.2,0,2.5,0,3.7,0c0-0.6,0-1.2,0-1.9c0.6,0,1.2,0,1.9,0
			c0-0.6,0-1.2,0-1.9c0.6,0,1.2,0,1.9,0c0-1.2,0-2.5,0-3.7c0.6,0,1.2,0,1.9,0c0-1.3,0-2.6,0-3.9c0.6,0,1.2,0,1.9,0c0-2.5,0-5,0-7.5
			c0.6,0,1.2,0,1.9,0c0-2.5,0-5,0-7.5c0.6,0,1.2,0,1.9,0c-0.1-1.3-0.1-2.6-0.2-3.9C357,157.1,355.2,157.1,353.3,157.1z M327.1,147.5
			c-0.6,0-1.2,0-1.9,0c0-1.2,0-2.5,0-3.7c-0.6,0-1.2,0-1.9,0c0-0.6,0-1.2,0-1.9c-1.2,0-2.5,0-3.7,0c0-0.6,0-1.2,0-1.9
			c-3.8,0-7.6,0-11.4,0c0,0.6,0,1.2,0,1.9c-2.5,0-5,0-7.5,0c0,0.6,0,1.2,0,1.9c-1.9,0-3.7,0-5.6,0c0,0.6,0,1.2,0,1.9
			c-2.5,0-5,0-7.5,0c0,0.6,0,1.2,0,1.9c-1.2,0-2.5,0-3.7,0c0,0.6,0,1.2,0,1.9c-0.6,0-1.2,0-1.9,0c0,0.6,0,1.2,0,1.9
			c-1.2,0-2.5,0-3.7,0c0,0.6,0,1.2,0,1.9c-0.6,0-1.2,0-1.9,0c0,0.7,0,1.4,0,2c-0.6,0-1.2,0-1.9,0c0,0.6,0,1.2,0,1.9
			c0.6,0,1.2,0,1.9,0c0,0.6,0,1.2,0,1.9c0.6,0,1.2,0,1.9,0c0,0.6,0,1.2,0,1.9c0.7,0,1.4,0,2,0c0-0.6,0-1.1,0-1.7c0.6,0,1.2,0,1.9,0
			c0-0.6,0-1.2,0-1.9c1.8,0,3.5,0,5.3,0c0,0.6,0,1.1,0,1.7c0.7,0,1.4,0,2,0c0,4.4,0,8.7,0,13.1c-0.6,0-1.2,0-1.9,0
			c0,4.4,0,8.8,0,13.3c-0.6,0-1.2,0-1.9,0c0,1.2,0,2.5,0,3.7c0.6,0,1.2,0,1.9,0c0,1.2,0,2.5,0,3.7c-0.6,0-1.2,0-1.9,0
			c0,1.2,0,2.5,0,3.7c0.6,0,1.2,0,1.9,0c0,0.6,0,1.2,0,1.9c-0.6,0-1.2,0-1.9,0c0,1.2,0,2.5,0,3.7c-0.6,0-1.2,0-1.9,0
			c0,0.7,0,1.4,0,2c-0.6,0-1.2,0-1.9,0c0,0.6,0,1.2,0,1.9c1.9,0.1,3.9,0.1,5.8,0.2c0-0.6,0-1.2,0-1.9c1.2,0,2.5,0,3.7,0
			c0-0.7,0-1.4,0-2c0.6,0,1.2,0,1.9,0c0-0.6,0-1.2,0-1.9c0.6,0,1.2,0,1.9,0c0-0.6,0-1.2,0-1.9c0.6,0,1.2,0,1.9,0c0-0.6,0-1.2,0-1.9
			c0.6,0,1.2,0,1.9,0c0-0.6,0-1.2,0-1.9c0.6,0,1.2,0,1.9,0c0-0.6,0-1.2,0-1.9c0.6,0,1.2,0,1.9,0c0-0.6,0-1.2,0-1.9
			c0.6,0,1.2,0,1.9,0c0-1.2,0-2.5,0-3.7c0.6,0,1.2,0,1.9,0c0-0.6,0-1.2,0-1.9c0.6,0,1.2,0,1.9,0c0-1.2,0-2.5,0-3.7
			c0.6,0,1.2,0,1.9,0c0-0.6,0-1.2,0-1.9c0.6,0,1.2,0,1.9,0c0-0.7,0-1.4,0-2c0.6,0,1.1,0,1.7,0c0.1-1.2,0.1-2.5,0.2-3.7
			c0.7,0,1.4,0,2,0c0-1.2,0-2.5,0-3.7c0.6,0,1.2,0,1.9,0c0-0.6,0-1.2,0-1.9c0.6,0,1.1,0,1.7,0c0.1-0.6,0.1-1.2,0.2-1.9
			c0.6,0,1.1,0,1.7,0c0.1-1.9,0.1-3.7,0.2-5.6c0.6,0,1.1,0,1.7,0c0.1-2.6,0.1-5.1,0.2-7.7c0.6,0,1.2,0,1.9,0c0-1.2,0-2.5,0-3.7
			c0.6,0,1.1,0,1.7,0C327.1,148.9,327.1,148.2,327.1,147.5z M315.9,157.1c-0.7,0-1.4,0-2,0c0,1.9,0,3.7,0,5.6c-0.6,0-1.2,0-1.9,0
			c0,1.2,0,2.5,0,3.7c-0.6,0-1.2,0-1.9,0c0,1.2,0,2.5,0,3.7c-0.6,0-1.2,0-1.9,0c0,0.6,0,1.2,0,1.9c-0.6,0-1.2,0-1.9,0
			c0,1.2,0,2.5,0,3.7c-0.6,0-1.2,0-1.9,0c0,0.6,0,1.2,0,1.9c-0.6,0-1.2,0-1.9,0c0,1.3,0,2.6,0,3.9c-0.7-0.1-1.4-0.1-2-0.2
			c0,0.6,0,1.2,0,1.9c-0.5,0-1,0-1.5,0c0-1.2,0-2.4,0-3.6c-0.6-0.1-1.2-0.1-1.9-0.2c0-4.4,0-8.7,0-13.1c-0.6-0.1-1.2-0.1-1.9-0.2
			c0-3.6,0-7.3,0-10.9c0.6,0,1.2,0,1.9,0c0-0.7,0-1.4,0-2c1.9,0,3.7,0,5.6,0c0-0.6,0-1.2,0-1.9c2.5,0,5,0,7.5,0c0-0.6,0-1.2,0-1.9
			c1.1,0,2.3,0,3.4,0c0,0.6,0,1.2,0,1.9c0.7-0.1,1.5-0.1,2.2-0.2C315.9,153.2,315.9,155.1,315.9,157.1z"/>
	</g>
</g>
<g>
	<g>
		<path class="st3" d="M73.1,223.3l-0.1-2.3l4.3-1.2l0.3,16.1l-4.3,1.2l-0.2-11.5l-2.1,0.6l0-2.3L73.1,223.3z"/>
	</g>
	<g>
		<path class="st3" d="M85.6,222l-4.3,1.2l0-2.3l2.1-0.6l-0.1-2.3l8.5-2.5l0.1,2.3l2.1-0.6l0.1,4.6l-2.1,0.6l0.1,2.3l-6.4,1.8
			l0.1,4.6l4.3-1.2l0-2.3l4.3-1.2l0.1,4.6l-12.8,3.7l-0.1-6.9l2.1-0.6l0-2.3l6.4-1.8l-0.1-4.6l-4.3,1.2L85.6,222z"/>
	</g>
	<g>
		<path class="st3" d="M98.2,229.9l0-2.3l2.1-0.6l0,2.3L98.2,229.9z"/>
	</g>
	<g>
		<path class="st3" d="M104.1,219l10.7-3.1l0.1,2.3l-10.7,3.1L104.1,219z"/>
	</g>
	<g>
		<path class="st3" d="M120.7,209.6l-0.1-2.3l4.3-1.2l0.3,16.1l-4.3,1.2l-0.2-11.5l-2.1,0.6l0-2.3L120.7,209.6z"/>
	</g>
	<g>
		<path class="st3" d="M133.2,212.9l0-2.3l4.3-1.2l-0.1-4.6l-4.3,1.2l0,2.3l-4.3,1.2l0-2.3l2.1-0.6l-0.1-2.3l8.5-2.5l0.1,2.3
			l2.1-0.6l0.1,4.6l-2.1,0.6l0.1,2.3l2.1-0.6l0.1,4.6l-2.1,0.6l0,2.3l-8.5,2.5l0-2.3l-2.1,0.6l-0.1-2.3l4.3-1.2l0,2.3l4.3-1.2
			l-0.1-4.6L133.2,212.9z"/>
	</g>
	<g>
		<path class="st3" d="M145.8,216.2l0-2.3l2.1-0.6l0,2.3L145.8,216.2z"/>
	</g>
	<g>
		<path class="st3" d="M153.7,200.1l-0.1-2.3l4.3-1.2l0.3,16.1l-4.3,1.2l-0.2-11.5l-2.1,0.6l0-2.3L153.7,200.1z"/>
	</g>
	<g>
		<path class="st3" d="M164,197.1l-0.1-2.3l4.3-1.2l0.3,16.1l-4.3,1.2l-0.2-11.5l-2.1,0.6l0-2.3L164,197.1z"/>
	</g>
	<g>
		<path class="st3" d="M172.4,208.5l0-2.3l2.1-0.6l0,2.3L172.4,208.5z"/>
	</g>
	<g>
		<path class="st3" d="M182.5,194.1l-4.3,1.2l0-2.3l2.1-0.6l-0.1-2.3l8.5-2.5l0.1,2.3l2.1-0.6l0.1,4.6l-2.1,0.6l0.1,2.3l-6.4,1.8
			l0.1,4.6l4.3-1.2l-0.1-2.3l4.3-1.2l0.1,4.6l-12.8,3.7l-0.1-6.9l2.1-0.6l-0.1-2.3l6.4-1.8l-0.1-4.6l-4.3,1.2L182.5,194.1z"/>
	</g>
	<g>
		<path class="st3" d="M197.2,199.1l-2.1,0.6l-0.2-11.5l2.1-0.6l-0.1-2.3l8.5-2.5l0.1,2.3l2.1-0.6l0.2,11.5l-2.1,0.6l0,2.3l-8.5,2.5
			L197.2,199.1z M203.4,185.7l-4.3,1.2l0.2,11.5l4.3-1.2L203.4,185.7z"/>
	</g>
	<g>
		<path class="st3" d="M213.7,182.7l-0.1-2.3l4.3-1.2l0.3,16.1l-4.3,1.2l-0.2-11.5l-2.1,0.6l0-2.3L213.7,182.7z"/>
	</g>
	<g>
		<path class="st3" d="M234.9,188.2l-2.1,0.6l0,2.3l-8.5,2.5l0-2.3l-2.1,0.6l0-2.3l4.3-1.2l0,2.3l4.3-1.2l-0.1-4.6l-6.4,1.8
			l-0.1-2.3l-2.1,0.6l-0.1-4.6l2.1-0.6l-0.1-2.3l8.5-2.5l0.1,2.3l2.1-0.6L234.9,188.2z M230.4,177.9l-4.3,1.2l0.1,4.6l4.3-1.2
			L230.4,177.9z"/>
	</g>
</g>
<g>
	<g>
		<path class="st4" d="M71.1,221.6l-0.1-2.3l4.3-1.2l0.3,16.1l-4.3,1.2l-0.2-11.5l-2.1,0.6l0-2.3L71.1,221.6z"/>
	</g>
	<g>
		<path class="st4" d="M83.5,220.3l-4.3,1.2l0-2.3l2.1-0.6l-0.1-2.3l8.5-2.5l0.1,2.3l2.1-0.6l0.1,4.6l-2.1,0.6l0.1,2.3l-6.4,1.8
			l0.1,4.6l4.3-1.2l0-2.3l4.3-1.2l0.1,4.6L79.5,233l-0.1-6.9l2.1-0.6l0-2.3l6.4-1.8l-0.1-4.6l-4.3,1.2L83.5,220.3z"/>
	</g>
	<g>
		<path class="st4" d="M96.2,228.2l0-2.3l2.1-0.6l0,2.3L96.2,228.2z"/>
	</g>
	<g>
		<path class="st4" d="M102,217.3l10.7-3.1l0.1,2.3l-10.7,3.1L102,217.3z"/>
	</g>
	<g>
		<path class="st4" d="M118.6,207.9l-0.1-2.3l4.3-1.2l0.3,16.1l-4.3,1.2l-0.2-11.5l-2.1,0.6l0-2.3L118.6,207.9z"/>
	</g>
	<g>
		<path class="st4" d="M131.2,211.2l0-2.3l4.3-1.2l-0.1-4.6l-4.3,1.2l0,2.3l-4.3,1.2l0-2.3l2.1-0.6l-0.1-2.3l8.5-2.5l0.1,2.3
			l2.1-0.6l0.1,4.6l-2.1,0.6l0.1,2.3l2.1-0.6l0.1,4.6l-2.1,0.6l0,2.3l-8.5,2.5l0-2.3L127,217l-0.1-2.3l4.3-1.2l0,2.3l4.3-1.2
			l-0.1-4.6L131.2,211.2z"/>
	</g>
	<g>
		<path class="st4" d="M143.7,214.5l0-2.3l2.1-0.6l0,2.3L143.7,214.5z"/>
	</g>
	<g>
		<path class="st4" d="M151.6,198.3l-0.1-2.3l4.3-1.2l0.3,16.1l-4.3,1.2l-0.2-11.5l-2.1,0.6l0-2.3L151.6,198.3z"/>
	</g>
	<g>
		<path class="st4" d="M161.9,195.4l-0.1-2.3l4.3-1.2l0.3,16.1l-4.3,1.2l-0.2-11.5l-2.1,0.6l0-2.3L161.9,195.4z"/>
	</g>
	<g>
		<path class="st4" d="M170.3,206.8l0-2.3l2.1-0.6l0,2.3L170.3,206.8z"/>
	</g>
	<g>
		<path class="st4" d="M180.4,192.3l-4.3,1.2l0-2.3l2.1-0.6l-0.1-2.3l8.5-2.5l0.1,2.3l2.1-0.6l0.1,4.6l-2.1,0.6l0.1,2.3l-6.4,1.8
			l0.1,4.6l4.3-1.2l-0.1-2.3l4.3-1.2l0.1,4.6l-12.8,3.7l-0.1-6.9l2.1-0.6l-0.1-2.3l6.4-1.8l-0.1-4.6l-4.3,1.2L180.4,192.3z"/>
	</g>
	<g>
		<path class="st4" d="M195.1,197.3L193,198l-0.2-11.5l2.1-0.6l-0.1-2.3l8.5-2.5l0.1,2.3l2.1-0.6l0.2,11.5l-2.1,0.6l0,2.3l-8.5,2.5
			L195.1,197.3z M201.3,184l-4.3,1.2l0.2,11.5l4.3-1.2L201.3,184z"/>
	</g>
	<g>
		<path class="st4" d="M211.6,181l-0.1-2.3l4.3-1.2l0.3,16.1l-4.3,1.2l-0.2-11.5l-2.1,0.6l0-2.3L211.6,181z"/>
	</g>
	<g>
		<path class="st4" d="M232.8,186.5l-2.1,0.6l0,2.3l-8.5,2.5l0-2.3l-2.1,0.6l0-2.3l4.3-1.2l0,2.3l4.3-1.2l-0.1-4.6L222,185l-0.1-2.3
			l-2.1,0.6l-0.1-4.6l2.1-0.6l-0.1-2.3l8.5-2.5l0.1,2.3l2.1-0.6L232.8,186.5z M228.3,176.2l-4.3,1.2l0.1,4.6l4.3-1.2L228.3,176.2z"
			/>
	</g>
</g>
</svg>
